<svg width="25" height="26" viewBox="0 0 25 26" fill="none" xmlns="http://www.w3.org/2000/svg">
<path d="M9.375 0C5.71875 0 2.8125 2.90625 2.8125 6.5625C2.80609 7.63769 3.06548 8.6978 3.5676 9.64856C4.06973 10.5993 4.79902 11.4113 5.69062 12.0122C2.35312 13.4494 0 16.7738 0 20.625H1.875C1.875 16.5 5.25 13.125 9.375 13.125C10.5 13.125 11.625 13.4062 12.5625 13.875C12.8437 13.3125 13.125 12.75 13.5938 12.2813C13.4072 12.1875 13.215 12.1134 13.0247 12.0319C13.9255 11.4331 14.6633 10.6197 15.1718 9.66502C15.6802 8.7103 15.9434 7.64416 15.9375 6.5625C15.9375 2.90625 13.0313 0 9.375 0ZM9.375 1.875C12 1.875 14.0625 3.9375 14.0625 6.5625C14.0625 9.1875 12 11.25 9.375 11.25C6.75 11.25 4.6875 9.1875 4.6875 6.5625C4.6875 3.9375 6.75 1.875 9.375 1.875ZM17.8125 12.1875C15.75 12.1875 14.0625 13.875 14.0625 15.9375V17.8125H11.25V25.3125H24.375V17.8125H21.5625V15.9375C21.5625 13.875 19.875 12.1875 17.8125 12.1875ZM17.8125 14.0625C18.8438 14.0625 19.6875 14.9062 19.6875 15.9375V17.8125H15.9375V15.9375C15.9375 14.9062 16.7812 14.0625 17.8125 14.0625ZM13.125 19.6875H22.5V23.4375H13.125V19.6875Z" fill="#333037"/>
</svg>
