<svg version="1.2" xmlns="http://www.w3.org/2000/svg" viewBox="0 0 512 512" width="512" height="512">
	<title>close</title>
	<style>
		.s0 { fill: #000000 } 
	</style>
	<g>
		<path class="s0" d="m437 75c-48.3-48.4-112.6-75-181-75-68.4 0-132.7 26.6-181 75-48.4 48.3-75 112.6-75 181 0 68.4 26.6 132.7 75 181 48.3 48.4 112.6 75 181 75 68.4 0 132.7-26.6 181-75 48.4-48.3 75-112.6 75-181 0-68.4-26.6-132.7-75-181zm-325.9 354.3c8.5-72.7 71-128.9 144.9-128.9 39 0 75.6 15.2 103.2 42.7 23.2 23.3 37.9 53.7 41.7 86.2-39.3 32.9-89.8 52.7-144.9 52.7-55.1 0-105.6-19.8-144.9-52.7zm315.6-25.4q-2.9-11.6-7.3-22.6-4.4-11.1-10.3-21.5-5.8-10.4-13.1-19.9-7.2-9.5-15.6-18c-18.5-18.4-40.3-32.2-64.1-40.9 28.6-19.4 47.5-52.2 47.5-89.2 0-59.5-48.4-107.8-107.8-107.8-59.4 0-107.8 48.3-107.8 107.8 0 37.1 18.9 69.8 47.5 89.2-21.9 8-42.1 20.3-59.6 36.6-25.2 23.5-42.7 53.4-50.8 86.3-34.4-39.7-55.3-91.4-55.3-147.9 0-124.6 101.4-226 226-226 124.6 0 226 101.4 226 226 0 56.5-20.9 108.3-55.3 147.9zm-170.7-134.4c-42.9 0-77.8-34.9-77.8-77.7 0-42.9 34.9-77.8 77.8-77.8 42.9 0 77.8 34.9 77.8 77.8 0 42.8-34.9 77.7-77.8 77.7z"/>
	</g>
</svg>