<svg width="19" height="21" viewBox="0 0 19 21" fill="none" xmlns="http://www.w3.org/2000/svg">
<path d="M17.9193 10.7959L10.2262 18.4834C9.17097 19.5383 7.73992 20.1308 6.24786 20.1305C4.7558 20.1302 3.32496 19.5373 2.2701 18.482C1.21525 17.4268 0.622783 15.9957 0.623047 14.5037C0.623311 13.0116 1.21628 11.5808 2.27151 10.5259L11.474 1.34875C12.1775 0.645593 13.1316 0.250713 14.1263 0.250977C14.6188 0.251107 15.1064 0.348244 15.5614 0.536842C16.0164 0.725439 16.4297 1.0018 16.7779 1.35015C17.1261 1.69851 17.4022 2.11202 17.5906 2.5671C17.7789 3.02217 17.8758 3.50989 17.8757 4.0024C17.8756 4.49491 17.7784 4.98258 17.5898 5.43755C17.4012 5.89252 17.1249 6.30589 16.7765 6.65406L16.7606 6.66906L7.77932 15.3147C7.67283 15.4171 7.5472 15.4976 7.40962 15.5514C7.27203 15.6053 7.12518 15.6316 6.97745 15.6287C6.82972 15.6258 6.684 15.5939 6.54861 15.5347C6.41322 15.4755 6.29082 15.3902 6.18839 15.2837C6.08595 15.1773 6.0055 15.0516 5.95162 14.914C5.89774 14.7765 5.87149 14.6296 5.87436 14.4819C5.87723 14.3341 5.90918 14.1884 5.96837 14.053C6.02755 13.9176 6.11283 13.7952 6.21932 13.6928L15.1921 5.05656C15.4726 4.77435 15.6295 4.39229 15.6282 3.99442C15.627 3.59655 15.4678 3.21546 15.1856 2.935C15.0458 2.79613 14.8801 2.68614 14.6979 2.61131C14.5156 2.53648 14.3204 2.49828 14.1234 2.49889C13.7256 2.50012 13.3445 2.65935 13.064 2.94156L3.86151 12.1159C3.2286 12.7491 2.87313 13.6078 2.8733 14.503C2.87339 14.9463 2.96079 15.3852 3.13051 15.7947C3.30022 16.2042 3.54894 16.5763 3.86245 16.8897C4.17596 17.2031 4.54813 17.4516 4.9577 17.6212C5.36727 17.7908 5.80623 17.878 6.24952 17.8779C7.14477 17.8777 8.00328 17.5219 8.6362 16.8887L16.3293 9.20125C16.434 9.0966 16.5582 9.01359 16.6949 8.95696C16.8317 8.90032 16.9782 8.87117 17.1262 8.87117C17.2742 8.87117 17.4207 8.90032 17.5575 8.95696C17.6942 9.01359 17.8184 9.0966 17.9231 9.20125C18.0277 9.3059 18.1107 9.43013 18.1674 9.56686C18.224 9.70358 18.2531 9.85013 18.2531 9.99812C18.2531 10.1461 18.224 10.2927 18.1674 10.4294C18.1107 10.5661 18.0277 10.6904 17.9231 10.795L17.9193 10.7959Z" fill="#94A3B8"/>
</svg>
