<svg width="18" height="23" viewBox="0 0 18 23" fill="none" xmlns="http://www.w3.org/2000/svg">
<path d="M10.1188 19.5054L10.0781 19.5108V19.5519V21.5C10.0781 21.7859 9.96454 22.0602 9.76235 22.2623C9.56016 22.4645 9.28594 22.5781 9 22.5781C8.71406 22.5781 8.43984 22.4645 8.23765 22.2623C8.03546 22.0602 7.92188 21.7859 7.92188 21.5V19.5519V19.5108L7.88118 19.5054C5.81871 19.2313 3.92581 18.218 2.55395 16.6537C1.1821 15.0895 0.424511 13.0805 0.421875 10.9999L0.375 11H0.421875C0.421875 10.7141 0.535463 10.4398 0.73765 10.2377C0.939838 10.0355 1.21406 9.92188 1.5 9.92188C1.78594 9.92188 2.06016 10.0355 2.26235 10.2377C2.46454 10.4398 2.57812 10.7141 2.57812 11C2.57812 12.7032 3.25471 14.3366 4.45905 15.541C5.66338 16.7453 7.29681 17.4219 9 17.4219C10.7032 17.4219 12.3366 16.7453 13.541 15.541C14.7453 14.3366 15.4219 12.7032 15.4219 11C15.4219 10.7141 15.5355 10.4398 15.7377 10.2377C15.9398 10.0355 16.2141 9.92188 16.5 9.92188C16.7859 9.92188 17.0602 10.0355 17.2623 10.2377C17.4645 10.4398 17.5781 10.714 17.5781 10.9999C17.5755 13.0805 16.8179 15.0895 15.446 16.6537C14.0742 18.218 12.1813 19.2313 10.1188 19.5054ZM12.4124 14.4124C11.5072 15.3175 10.28 15.8266 9 15.8281C7.71996 15.8266 6.49277 15.3175 5.58764 14.4124C4.6825 13.5072 4.17335 12.28 4.17188 10.9999V5C4.17188 3.7195 4.68055 2.49145 5.586 1.586C6.49145 0.680551 7.7195 0.171875 9 0.171875C10.2805 0.171875 11.5086 0.680551 12.414 1.586C13.3194 2.49145 13.8281 3.7195 13.8281 5V10.9999C13.8267 12.28 13.3175 13.5072 12.4124 14.4124ZM7.1107 3.1107C6.60963 3.61177 6.32812 4.29137 6.32812 5V11C6.32812 11.7086 6.60963 12.3882 7.1107 12.8893C7.61177 13.3904 8.29137 13.6719 9 13.6719C9.70863 13.6719 10.3882 13.3904 10.8893 12.8893C11.3904 12.3882 11.6719 11.7086 11.6719 11V5C11.6719 4.29137 11.3904 3.61177 10.8893 3.1107C10.3882 2.60963 9.70863 2.32812 9 2.32812C8.29137 2.32812 7.61177 2.60963 7.1107 3.1107Z" fill="#475569" stroke="#475569" stroke-width="0.09375"/>
</svg>
