<svg width="16" height="20" viewBox="0 0 16 20" fill="none" xmlns="http://www.w3.org/2000/svg">
<path d="M1.56964 5.88794C1.28389 4.00244 2.61439 2.30594 4.64689 1.68344C5.00777 1.57299 5.39719 1.60438 5.73572 1.7712C6.07425 1.93803 6.33638 2.22773 6.46864 2.58119L7.12039 4.3212C7.22518 4.60109 7.24396 4.9059 7.17434 5.19654C7.10472 5.48719 6.94987 5.75041 6.72964 5.95245L4.79089 7.73069C4.69509 7.81841 4.62372 7.92949 4.58375 8.05307C4.54378 8.17666 4.53659 8.3085 4.56289 8.4357L4.58014 8.5137L4.62814 8.70944C4.67089 8.87444 4.73539 9.10695 4.82614 9.38445C5.00614 9.9357 5.29339 10.6767 5.72089 11.4169C6.14839 12.1572 6.64639 12.7767 7.03339 13.2079C7.23511 13.4323 7.44578 13.6485 7.66489 13.8559L7.72489 13.9114C7.82186 13.9973 7.93943 14.0566 8.06613 14.0836C8.19284 14.1105 8.32436 14.1042 8.44789 14.0652L10.9574 13.2754C11.2425 13.1858 11.5479 13.1834 11.8344 13.2685C12.1209 13.3537 12.3755 13.5224 12.5654 13.7532L13.7526 15.1947C14.2476 15.7947 14.1891 16.6767 13.6199 17.2069C12.0644 18.6567 9.92539 18.9544 8.43739 17.7574C6.61393 16.286 5.0764 14.4919 3.90139 12.4647C2.71775 10.4382 1.92669 8.20748 1.56964 5.88794ZM6.13414 8.53394L7.74364 7.05795C8.1841 6.65387 8.49381 6.12743 8.63305 5.54614C8.77229 4.96486 8.73471 4.35523 8.52514 3.79544L7.87264 2.05545C7.60644 1.34454 7.07915 0.761917 6.39824 0.426341C5.71733 0.0907655 4.93408 0.0275012 4.20814 0.249445C1.68439 1.02269 -0.342112 3.28544 0.0868885 6.11219C0.471986 8.61862 1.32615 11.03 2.60464 13.2199C3.87199 15.4061 5.53027 17.3407 7.49689 18.9274C9.72814 20.7199 12.7086 20.1087 14.6429 18.3049C15.1967 17.7893 15.5327 17.0817 15.5825 16.3267C15.6323 15.5716 15.3919 14.8261 14.9106 14.2422L13.7234 12.8007C13.3435 12.339 12.8343 12.0014 12.2611 11.8311C11.6879 11.6609 11.077 11.6658 10.5066 11.8452L8.42389 12.5007C8.33064 12.4048 8.23937 12.3071 8.15014 12.2074C7.72195 11.734 7.34324 11.2181 7.01989 10.6677C6.70475 10.1124 6.44716 9.52635 6.25114 8.9187C6.20951 8.79151 6.1705 8.66348 6.13414 8.5347" fill="#FE6002"/>
</svg>
