<svg width="36" height="35" viewBox="0 0 36 35" fill="none" xmlns="http://www.w3.org/2000/svg">
<path d="M35.25 25.9717V32.749C35.2502 33.2343 35.0664 33.7015 34.7355 34.0565C34.4047 34.4116 33.9516 34.6279 33.4675 34.6618C32.6299 34.7193 31.9457 34.75 31.4167 34.75C14.4791 34.75 0.75 21.0209 0.75 4.08333C0.75 3.55433 0.77875 2.87008 0.838167 2.0325C0.872135 1.54843 1.08845 1.09527 1.44346 0.76445C1.79847 0.43363 2.26574 0.249781 2.751 0.25H9.52833C9.76607 0.24976 9.99542 0.337896 10.1718 0.497289C10.3482 0.656682 10.4591 0.875951 10.4828 1.1125C10.5269 1.55333 10.5672 1.90408 10.6055 2.1705C10.9864 4.82877 11.767 7.41418 12.9208 9.83908C13.1029 10.2224 12.9841 10.6805 12.6391 10.9258L8.50292 13.8813C11.0319 19.774 15.7279 24.47 21.6206 26.999L24.5722 22.8705C24.6929 22.7018 24.8689 22.5809 25.0696 22.5287C25.2703 22.4765 25.483 22.4964 25.6705 22.5849C28.0951 23.7366 30.6799 24.5152 33.3372 24.8945C33.6036 24.9328 33.9543 24.975 34.3913 25.0172C34.6275 25.0414 34.8463 25.1524 35.0053 25.3288C35.1643 25.5051 35.2522 25.7342 35.2519 25.9717H35.25Z" fill="#333037"/>
</svg>
