<svg width="25" height="26" viewBox="0 0 25 26" fill="none" xmlns="http://www.w3.org/2000/svg">
<path d="M10 0.6875C6.34375 0.6875 3.4375 3.59375 3.4375 7.25C3.43109 8.32519 3.69048 9.3853 4.1926 10.3361C4.69473 11.2868 5.42402 12.0988 6.31562 12.6997C2.97812 14.1369 0.625 17.4613 0.625 21.3125H2.5C2.5 17.1875 5.875 13.8125 10 13.8125C11.125 13.8125 12.25 14.0937 13.1875 14.5625C13.4687 14 13.75 13.4375 14.2188 12.9688C14.0322 12.875 13.84 12.8009 13.6497 12.7194C14.5505 12.1206 15.2883 11.3072 15.7968 10.3525C16.3052 9.3978 16.5684 8.33166 16.5625 7.25C16.5625 3.59375 13.6563 0.6875 10 0.6875ZM10 2.5625C12.625 2.5625 14.6875 4.625 14.6875 7.25C14.6875 9.875 12.625 11.9375 10 11.9375C7.375 11.9375 5.3125 9.875 5.3125 7.25C5.3125 4.625 7.375 2.5625 10 2.5625ZM18.4375 12.875C16.375 12.875 14.6875 14.5625 14.6875 16.625V18.5H11.875V26H25V18.5H22.1875V16.625C22.1875 14.5625 20.5 12.875 18.4375 12.875ZM18.4375 14.75C19.4688 14.75 20.3125 15.5937 20.3125 16.625V18.5H16.5625V16.625C16.5625 15.5937 17.4062 14.75 18.4375 14.75ZM13.75 20.375H23.125V24.125H13.75V20.375Z" fill="#FE6002"/>
</svg>
