<svg version="1.2" xmlns="http://www.w3.org/2000/svg" viewBox="0 0 16 16" width="16" height="16">
	<title>close-icon-svg</title>
	<style>
		.s0 { fill: #fe6002 } 
	</style>
	<g>
		<path fill-rule="evenodd" class="s0" d="m1 13.6q-0.3 0.3-0.3 0.7 0 0.4 0.3 0.7 0.3 0.3 0.7 0.3 0.4 0 0.7-0.3l5.6-5.6 5.6 5.6q0.3 0.3 0.7 0.3 0.4 0 0.7-0.3 0.3-0.3 0.3-0.7 0-0.4-0.3-0.7l-5.6-5.6 5.6-5.6q0.3-0.3 0.3-0.7 0-0.4-0.3-0.7-0.3-0.3-0.7-0.3-0.4 0-0.7 0.3l-5.6 5.6-5.6-5.6q-0.3-0.3-0.7-0.3-0.4 0-0.7 0.3-0.3 0.3-0.3 0.7 0 0.4 0.3 0.7l5.6 5.6z"/>
	</g>
</svg>