<svg width="20" height="20" viewBox="0 0 20 20" fill="none" xmlns="http://www.w3.org/2000/svg">
<path d="M7.70616 1.67758C8.45229 2.03887 9.34243 1.91653 9.96341 1.36733C9.98431 1.34885 10.0157 1.34885 10.0366 1.36733C10.6576 1.91653 11.5477 2.03887 12.2938 1.67758C12.3189 1.66543 12.3492 1.6739 12.3643 1.69732C12.8141 2.39369 13.6382 2.75166 14.4541 2.60507C14.4816 2.60014 14.5084 2.61645 14.5167 2.64309C14.7619 3.43499 15.4589 4.00202 16.2841 4.08101C16.3119 4.08366 16.3333 4.1066 16.334 4.13448C16.3565 4.96318 16.8747 5.69723 17.648 5.99593C17.674 6.00598 17.6884 6.03384 17.6817 6.06089C17.4797 6.86492 17.7806 7.71155 18.4447 8.20781C18.467 8.22451 18.4734 8.25524 18.4596 8.27945C18.0482 8.99919 18.1095 9.8956 18.615 10.5526C18.632 10.5747 18.6299 10.606 18.61 10.6256C18.0198 11.2077 17.8369 12.0874 18.1465 12.8564C18.1569 12.8823 18.1464 12.9119 18.122 12.9254C17.3965 13.3266 16.9832 14.1244 17.0737 14.9484C17.0768 14.9761 17.0587 15.0018 17.0315 15.0082C16.2247 15.1988 15.6115 15.8555 15.4764 16.6734C15.4718 16.7009 15.4475 16.7207 15.4196 16.7195C14.5913 16.6854 13.8236 17.1523 13.4728 17.9034C13.461 17.9287 13.4322 17.9412 13.4057 17.9326C12.6173 17.6762 11.7521 17.9186 11.2117 18.5473C11.1935 18.5684 11.1624 18.5727 11.1392 18.5572C10.4493 18.0977 9.55075 18.0977 8.86076 18.5572C8.83755 18.5727 8.80645 18.5684 8.78827 18.5473C8.24785 17.9186 7.38267 17.6762 6.59429 17.9326C6.56777 17.9412 6.53898 17.9287 6.52718 17.9034C6.1764 17.1523 5.4087 16.6854 4.58041 16.7195C4.55254 16.7207 4.52819 16.7009 4.52365 16.6734C4.38853 15.8555 3.77525 15.1988 2.96847 15.0082C2.94133 15.0018 2.92322 14.9761 2.92627 14.9484C3.01684 14.1244 2.60347 13.3266 1.87803 12.9254C1.85362 12.9119 1.84311 12.8823 1.85352 12.8564C2.16305 12.0874 1.98025 11.2077 1.38995 10.6256C1.37009 10.606 1.36795 10.5747 1.38496 10.5526C1.8905 9.8956 1.95181 8.99919 1.54045 8.27945C1.52661 8.25524 1.53299 8.22451 1.55533 8.20781C2.21939 7.71155 2.52028 6.86492 2.31835 6.06089C2.31156 6.03385 2.326 6.00598 2.35201 5.99593C3.12533 5.69723 3.64348 4.96318 3.66596 4.13448C3.66672 4.1066 3.68814 4.08366 3.71591 4.08101C4.54113 4.00202 5.23812 3.43499 5.48334 2.64309C5.49159 2.61645 5.51841 2.60014 5.54586 2.60507C6.3618 2.75166 7.18592 2.39369 7.6357 1.69732C7.65084 1.6739 7.68106 1.66543 7.70616 1.67758Z" stroke="#FDC109" stroke-width="2"/>
<path d="M9.99973 16.4888C13.5432 16.4888 16.4885 13.5498 16.4885 10.0001C16.4885 6.45656 13.5367 3.51128 9.99322 3.51128C6.44374 3.51128 3.51123 6.45656 3.51123 10.0001C3.51123 13.5498 6.44999 16.4888 9.99973 16.4888ZM7.4616 13.5436C7.30906 13.429 7.28354 13.2444 7.37257 12.9836L8.14886 10.6618L6.1639 9.24304C5.93482 9.08398 5.8523 8.90593 5.90333 8.72787C5.96033 8.55606 6.13839 8.46703 6.41199 8.46703L8.85484 8.48603L9.5991 6.1512C9.67564 5.89063 9.80919 5.75057 10 5.75057C10.1908 5.75057 10.3181 5.89036 10.4009 6.1512L11.1452 8.48603L13.5815 8.46703C13.8616 8.46703 14.0266 8.55606 14.0904 8.7276C14.1542 8.90593 14.0587 9.08398 13.8361 9.24304L11.8449 10.6618L12.6212 12.9836C12.7099 13.2444 12.6847 13.4287 12.5381 13.5436C12.3793 13.6643 12.1948 13.6196 11.9722 13.4545L9.99973 12.0105L8.02753 13.4545C7.79844 13.6198 7.61442 13.6643 7.4616 13.5436Z" fill="#FDC109"/>
</svg>
