<svg width="24" height="24" viewBox="0 0 24 24" fill="none" xmlns="http://www.w3.org/2000/svg">
<path d="M19 7C18.8667 7 18.7333 7.03333 18.6 7.1C18.4667 7.16667 18.3667 7.23333 18.3 7.3C18.2333 7.36667 18.1667 7.46667 18.1 7.6C18.0333 7.73333 18 7.86667 18 8V19.2C18 19.4667 17.9333 19.7 17.8 19.9C17.6667 20.1667 17.5333 20.3667 17.4 20.5C17.2 20.7 16.9667 20.8333 16.7 20.9C16.5 20.9667 16.2667 21 16 21H8C7.73333 21 7.5 20.9667 7.3 20.9C7.03333 20.8333 6.8 20.7 6.6 20.5C6.46667 20.3667 6.33333 20.1667 6.2 19.9C6.06667 19.7 6 19.4667 6 19.2V8C6 7.73333 5.9 7.5 5.7 7.3C5.5 7.1 5.26667 7 5 7C4.73333 7 4.5 7.1 4.3 7.3C4.1 7.5 4 7.73333 4 8V19.2C4 19.7333 4.1 20.2333 4.3 20.7C4.56667 21.1667 4.86667 21.5667 5.2 21.9C5.6 22.3 6.03333 22.5667 6.5 22.7C6.96667 22.9 7.46667 23 8 23H16C16.5333 23 17.0333 22.9 17.5 22.7C17.9667 22.5667 18.4 22.3 18.8 21.9C19.1333 21.5667 19.4333 21.1667 19.7 20.7C19.9 20.2333 20 19.7333 20 19.2V8C20 7.86667 19.9667 7.73333 19.9 7.6C19.8333 7.46667 19.7667 7.36667 19.7 7.3C19.6333 7.23333 19.5333 7.16667 19.4 7.1C19.2667 7.03333 19.1333 7 19 7ZM20 4H16V2C16 1.86667 15.9667 1.73333 15.9 1.6C15.8333 1.46667 15.7667 1.36667 15.7 1.3C15.6333 1.23333 15.5333 1.16667 15.4 1.1C15.2667 1.03333 15.1333 1 15 1H9C8.86667 1 8.73333 1.03333 8.6 1.1C8.46667 1.16667 8.36667 1.23333 8.3 1.3C8.23333 1.36667 8.16667 1.46667 8.1 1.6C8.03333 1.73333 8 1.86667 8 2V4H4C3.73333 4 3.5 4.1 3.3 4.3C3.1 4.5 3 4.73333 3 5C3 5.26667 3.1 5.5 3.3 5.7C3.5 5.9 3.73333 6 4 6H20C20.2667 6 20.5 5.9 20.7 5.7C20.9 5.5 21 5.26667 21 5C21 4.73333 20.9 4.5 20.7 4.3C20.5 4.1 20.2667 4 20 4ZM10 4V3H14V4H10Z" fill="#BA68C8"/>
<path d="M11 17V10C11 9.73333 10.9 9.5 10.7 9.3C10.5 9.1 10.2667 9 10 9C9.73333 9 9.5 9.1 9.3 9.3C9.1 9.5 9 9.73333 9 10V17C9 17.2667 9.1 17.5 9.3 17.7C9.5 17.9 9.73333 18 10 18C10.2667 18 10.5 17.9 10.7 17.7C10.9 17.5 11 17.2667 11 17ZM15 17V10C15 9.73333 14.9 9.5 14.7 9.3C14.5 9.1 14.2667 9 14 9C13.7333 9 13.5 9.1 13.3 9.3C13.1 9.5 13 9.73333 13 10V17C13 17.2667 13.1 17.5 13.3 17.7C13.5 17.9 13.7333 18 14 18C14.2667 18 14.5 17.9 14.7 17.7C14.9 17.5 15 17.2667 15 17Z" fill="#BA68C8"/>
</svg>
