<svg width="12" height="14" viewBox="0 0 12 14" fill="none" xmlns="http://www.w3.org/2000/svg">
<path d="M2.34797 13.6667C1.97464 13.6667 1.65686 13.5356 1.39464 13.2733C1.13241 13.0111 1.0013 12.6936 1.0013 12.3208V2H0.167969V1.16667H3.5013V0.525002H8.5013V1.16667H11.8346V2H11.0013V12.3208C11.0013 12.7042 10.873 13.0244 10.6163 13.2817C10.3596 13.5389 10.0391 13.6672 9.65464 13.6667H2.34797ZM10.168 2H1.83464V12.3208C1.83464 12.4703 1.88269 12.5931 1.9788 12.6892C2.07491 12.7853 2.19797 12.8333 2.34797 12.8333H9.65547C9.78325 12.8333 9.90075 12.78 10.008 12.6733C10.1152 12.5667 10.1685 12.4489 10.168 12.32V2ZM4.17464 11.1667H5.00797V3.66667H4.17464V11.1667ZM6.99464 11.1667H7.82797V3.66667H6.99464V11.1667Z" fill="#FE6002"/>
</svg>
