<svg width="17" height="20" viewBox="0 0 17 20" fill="none" xmlns="http://www.w3.org/2000/svg">
<path d="M8.25195 3.5C8.45087 3.5 8.64163 3.57902 8.78229 3.71967C8.92294 3.86032 9.00195 4.05109 9.00195 4.25V4.688C9.99195 4.838 10.752 5.694 10.752 6.727C10.752 6.92591 10.6729 7.11668 10.5323 7.25733C10.3916 7.39798 10.2009 7.477 10.002 7.477C9.80304 7.477 9.61228 7.39798 9.47162 7.25733C9.33097 7.11668 9.25195 6.92591 9.25195 6.727C9.25195 6.57768 9.19264 6.43448 9.08706 6.3289C8.98147 6.22332 8.83827 6.164 8.68895 6.164H8.00195C7.80304 6.164 7.61228 6.24302 7.47162 6.38367C7.33097 6.52432 7.25195 6.71509 7.25195 6.914V7.179C7.25183 7.33184 7.2984 7.48107 7.38544 7.60671C7.47247 7.73235 7.59582 7.8284 7.73896 7.882L9.29195 8.464C9.72086 8.62483 10.0905 8.91274 10.3513 9.28925C10.6122 9.66576 10.752 10.1129 10.752 10.571V10.836C10.752 11.3459 10.5789 11.8407 10.2609 12.2393C9.943 12.6379 9.49909 12.9167 9.00195 13.03V13.5C9.00195 13.6989 8.92294 13.8897 8.78229 14.0303C8.64163 14.171 8.45087 14.25 8.25195 14.25C8.05304 14.25 7.86228 14.171 7.72162 14.0303C7.58097 13.8897 7.50195 13.6989 7.50195 13.5V13.062C7.01452 12.9878 6.56986 12.7412 6.24875 12.3671C5.92764 11.993 5.75137 11.516 5.75195 11.023C5.75195 10.8241 5.83097 10.6333 5.97162 10.4927C6.11228 10.352 6.30304 10.273 6.50195 10.273C6.70087 10.273 6.89163 10.352 7.03229 10.4927C7.17294 10.6333 7.25195 10.8241 7.25195 11.023C7.25195 11.334 7.50395 11.586 7.81495 11.586H8.50195C8.70087 11.586 8.89163 11.507 9.03229 11.3663C9.17294 11.2257 9.25195 11.0349 9.25195 10.836V10.571C9.25188 10.4183 9.20521 10.2693 9.11819 10.1439C9.03116 10.0184 8.90793 9.92254 8.76496 9.869L7.21195 9.286C6.78305 9.12517 6.41345 8.83726 6.15256 8.46075C5.89167 8.08424 5.7519 7.63707 5.75195 7.179V6.914C5.7519 6.40412 5.92502 5.90933 6.24297 5.51072C6.56091 5.11211 7.00482 4.83331 7.50195 4.72V4.25C7.50195 4.05109 7.58097 3.86032 7.72162 3.71967C7.86228 3.57902 8.05304 3.5 8.25195 3.5Z" fill="black"/>
<path fill-rule="evenodd" clip-rule="evenodd" d="M9.18734 0.352993C8.89373 0.218765 8.57468 0.149292 8.25184 0.149292C7.92901 0.149292 7.60995 0.218765 7.31634 0.352993L1.59234 2.97099C1.20015 3.15017 0.867703 3.43828 0.634572 3.801C0.401441 4.16373 0.277445 4.58581 0.277344 5.01699V10.482C0.277344 12.039 0.755344 13.585 1.75834 14.826C2.55834 15.816 3.64534 17.074 4.75634 18.09C5.31134 18.598 5.89034 19.062 6.45834 19.403C7.01134 19.736 7.63234 20 8.25134 20C8.87134 20 9.49134 19.736 10.0453 19.403C10.6133 19.062 11.1923 18.598 11.7473 18.09C12.8583 17.074 13.9443 15.817 14.7453 14.826C15.7483 13.585 16.2253 12.039 16.2253 10.482V5.01699C16.2253 4.13699 15.7123 3.33699 14.9113 2.97099L9.18734 0.352993ZM7.94034 1.71699C8.03826 1.6722 8.14467 1.64902 8.25234 1.64902C8.36002 1.64902 8.46643 1.6722 8.56434 1.71699L14.2883 4.33499C14.419 4.39477 14.5298 4.49082 14.6074 4.61173C14.6851 4.73263 14.7263 4.8733 14.7263 5.01699V10.482C14.7263 11.736 14.3423 12.939 13.5793 13.883C12.7973 14.851 11.7663 16.041 10.7363 16.983C10.2203 17.455 9.72334 17.847 9.27334 18.118C8.80934 18.397 8.47034 18.5 8.25334 18.5C8.03534 18.5 7.69634 18.397 7.23134 18.118C6.78134 17.848 6.28434 17.455 5.76934 16.983C4.73934 16.041 3.70834 14.851 2.92634 13.883C2.16334 12.939 1.77834 11.736 1.77834 10.483V5.01599C1.77835 4.8723 1.81963 4.73163 1.89728 4.61073C1.97493 4.48982 2.08568 4.39377 2.21634 4.33399L7.94034 1.71699Z" fill="black"/>
</svg>
