<svg width="12" height="12" viewBox="0 0 12 12" fill="none" xmlns="http://www.w3.org/2000/svg">
<path d="M11.424 0.576267C11.2415 0.393581 11.0248 0.248655 10.7863 0.149775C10.5477 0.0508951 10.292 0 10.0338 0C9.77561 0 9.51992 0.0508951 9.28139 0.149775C9.04286 0.248655 8.82616 0.393581 8.64367 0.576267L1.25121 7.96907C1.03123 8.18905 0.871239 8.46203 0.787245 8.762L0.0138011 11.5242C-0.00406902 11.5883 -0.00459431 11.6559 0.0122793 11.7202C0.0291529 11.7845 0.0628187 11.8432 0.109827 11.8902C0.156835 11.9372 0.215496 11.9708 0.279799 11.9877C0.344102 12.0046 0.411734 12.0041 0.475767 11.9862L3.23757 11.2128C3.53774 11.1294 3.81114 10.9695 4.03101 10.7488L11.424 3.35601C11.6066 3.17354 11.7515 2.95687 11.8503 2.71839C11.9491 2.47991 12 2.22429 12 1.96614C12 1.70799 11.9491 1.45237 11.8503 1.21388C11.7515 0.975404 11.6066 0.758737 11.424 0.576267ZM9.17413 1.10622C9.4022 0.878219 9.71151 0.750157 10.034 0.750204C10.3565 0.750251 10.6658 0.878402 10.8938 1.10647C11.1218 1.33453 11.2498 1.64383 11.2498 1.96631C11.2497 2.2888 11.1216 2.59806 10.8935 2.82606L10.1236 3.59548L8.40419 1.87565L9.17413 1.10622ZM7.87423 2.4061L9.5941 4.12593L3.50055 10.2189C3.37185 10.3484 3.21159 10.4422 3.03558 10.4908L0.915236 11.0843L1.50869 8.96448C1.55801 8.78875 1.65166 8.62864 1.78067 8.49952L7.87423 2.4061Z" fill="#FE6002"/>
</svg>
