<svg width="166" height="128" viewBox="0 0 166 128" fill="none" xmlns="http://www.w3.org/2000/svg">
<path d="M64.6056 85.5813C66.1112 86.8125 68.2779 86.8178 69.7896 85.594L131.489 36.884C129.106 33.6951 125.465 31.6528 121.383 31.6528H10.7249C7.31261 31.6528 4.2766 33.3853 2.3125 36.0788C2.38586 36.1096 2.45657 36.1462 2.52392 36.1884L64.6056 85.5813Z" fill="#FE6002"/>
<path d="M71.9873 88.8546C69.1932 91.1221 65.1834 91.1133 62.3994 88.8335L52.9784 81.3365L5.38972 127.197C5.35378 127.231 5.30938 127.241 5.27344 127.273C6.31768 127.752 7.4537 128 8.60332 128H125.809C126.459 127.994 127.107 127.908 127.737 127.745L80.3532 82.2639L71.9873 88.8546Z" fill="#FE6002"/>
<path d="M49.9081 78.8937L0.549822 39.6176C0.186309 40.802 0.00106118 42.0336 0.00012764 43.2723V118.697C-0.0119723 121.051 0.836583 123.329 2.38707 125.104C2.47269 124.756 2.64922 124.437 2.89871 124.179L49.9081 78.8937Z" fill="#FE6002"/>
<path d="M130.991 125.486C131.087 125.594 131.17 125.713 131.239 125.84C133.26 124.014 134.406 121.416 134.389 118.697V45.7319C134.391 43.8999 134.057 42.083 133.406 40.3701L83.4258 79.8275L130.991 125.486Z" fill="#FE6002"/>
<rect x="102.844" y="0.5" width="62.5206" height="62.3237" rx="31.1619" fill="white" stroke="#DDDDDD"/>
<path d="M130.753 43.7794C129.957 43.7791 129.195 43.4577 128.635 42.8867L120.414 34.5033C119.3 33.3141 119.33 31.4435 120.482 30.2915C121.635 29.1396 123.487 29.1282 124.653 30.266L130.551 36.2821L143.376 20.5838C144.437 19.3481 146.28 19.1926 147.529 20.2333C148.778 21.2741 148.976 23.131 147.976 24.4171L133.052 42.6826C132.514 43.3371 131.728 43.7315 130.886 43.7685L130.753 43.7794Z" fill="#FE6002"/>
</svg>
