<svg version="1.2" xmlns="http://www.w3.org/2000/svg" viewBox="0 0 22 22" width="22" height="22">
	<title>close-svg</title>
	<style>
		.s0 { fill: #c70e05 } 
	</style>
	<g>
		<g>
			<path class="s0" d="m11 15c0.6 0 1 0.4 1 1 0 0.6-0.4 1-1 1-0.6 0-1-0.4-1-1 0-0.6 0.4-1 1-1z"/>
			<path fill-rule="evenodd" class="s0" d="m11.5 13.5q-0.2 0.2-0.5 0.3-0.3-0.1-0.5-0.3-0.2-0.2-0.3-0.5v-7q0.1-0.3 0.3-0.5 0.2-0.2 0.5-0.3 0.3 0.1 0.5 0.3 0.2 0.2 0.3 0.5v7q-0.1 0.3-0.3 0.5zm-0.5 8.3c-5.9-0.1-10.8-4.9-10.8-10.8 0.1-5.9 4.9-10.8 10.8-10.8 5.9 0.1 10.8 4.9 10.8 10.8-0.1 5.9-4.9 10.8-10.8 10.8zm-8.5-7.3c0.4 1.2 1.1 2.2 2 3 0.8 0.9 1.8 1.6 3 2 1.1 0.5 2.3 0.7 3.5 0.7 1.2 0 2.4-0.2 3.5-0.7 1.2-0.4 2.2-1.1 3-2 0.9-0.8 1.6-1.8 2-3 0.5-1.1 0.8-2.3 0.8-3.5-0.2-0.8-0.4-2.8-0.8-3.5-0.4-1.2-1.1-2.2-2-3-0.8-0.9-1.8-1.6-3-2-1.1-0.5-2.3-0.7-3.5-0.7-1.2-0.1-2.4 0.2-3.5 0.7-1.2 0.4-2.2 1.1-3 2-0.9 0.8-1.6 1.8-2 3-0.5 1.1-0.7 2.3-0.7 3.5-0.1 1.2 0.2 2.4 0.7 3.5z"/>
		</g>
	</g>
</svg>