<svg width="120" height="24" viewBox="0 0 120 24" fill="none" xmlns="http://www.w3.org/2000/svg">
<path d="M10.9193 2.86868C11.0293 2.67984 11.1869 2.52316 11.3764 2.41426C11.5659 2.30536 11.7807 2.24805 11.9993 2.24805C12.2178 2.24805 12.4326 2.30536 12.6221 2.41426C12.8116 2.52316 12.9692 2.67984 13.0793 2.86868L15.8743 7.66668L21.3023 8.84268C21.5158 8.88908 21.7134 8.99063 21.8754 9.13721C22.0374 9.2838 22.1582 9.47029 22.2257 9.67811C22.2932 9.88592 22.305 10.1078 22.26 10.3216C22.215 10.5354 22.1148 10.7337 21.9693 10.8967L18.2693 15.0377L18.8293 20.5627C18.8513 20.7802 18.816 20.9998 18.7267 21.1994C18.6374 21.399 18.4973 21.5717 18.3204 21.7002C18.1435 21.8288 17.9359 21.9086 17.7185 21.9319C17.5011 21.9551 17.2813 21.9209 17.0813 21.8327L11.9993 19.5927L6.91725 21.8327C6.71717 21.9209 6.49744 21.9551 6.28001 21.9319C6.06257 21.9086 5.85504 21.8288 5.67812 21.7002C5.50121 21.5717 5.36112 21.399 5.27182 21.1994C5.18253 20.9998 5.14716 20.7802 5.16925 20.5627L5.72925 15.0377L2.02925 10.8977C1.88348 10.7347 1.78301 10.5363 1.73787 10.3224C1.69272 10.1085 1.70449 9.88641 1.772 9.67844C1.8395 9.47046 1.96038 9.28383 2.12256 9.13718C2.28474 8.99053 2.48256 8.88898 2.69625 8.84268L8.12425 7.66668L10.9193 2.86868Z" fill="#FDC109"/>
<path d="M34.9193 2.86868C35.0293 2.67984 35.1869 2.52316 35.3764 2.41426C35.5659 2.30536 35.7807 2.24805 35.9993 2.24805C36.2178 2.24805 36.4326 2.30536 36.6221 2.41426C36.8116 2.52316 36.9692 2.67984 37.0793 2.86868L39.8743 7.66668L45.3023 8.84268C45.5158 8.88908 45.7134 8.99063 45.8754 9.13721C46.0374 9.2838 46.1582 9.47029 46.2257 9.67811C46.2932 9.88592 46.305 10.1078 46.26 10.3216C46.215 10.5354 46.1148 10.7337 45.9693 10.8967L42.2693 15.0377L42.8293 20.5627C42.8513 20.7802 42.816 20.9998 42.7267 21.1994C42.6374 21.399 42.4973 21.5717 42.3204 21.7002C42.1435 21.8288 41.9359 21.9086 41.7185 21.9319C41.5011 21.9551 41.2813 21.9209 41.0813 21.8327L35.9993 19.5927L30.9173 21.8327C30.7172 21.9209 30.4974 21.9551 30.28 21.9319C30.0626 21.9086 29.855 21.8288 29.6781 21.7002C29.5012 21.5717 29.3611 21.399 29.2718 21.1994C29.1825 20.9998 29.1472 20.7802 29.1693 20.5627L29.7293 15.0377L26.0293 10.8977C25.8835 10.7347 25.783 10.5363 25.7379 10.3224C25.6927 10.1085 25.7045 9.88641 25.772 9.67844C25.8395 9.47046 25.9604 9.28383 26.1226 9.13718C26.2847 8.99053 26.4826 8.88898 26.6963 8.84268L32.1243 7.66668L34.9193 2.86868Z" fill="#FDC109"/>
<path d="M58.9193 2.86868C59.0293 2.67984 59.1869 2.52316 59.3764 2.41426C59.5659 2.30536 59.7807 2.24805 59.9993 2.24805C60.2178 2.24805 60.4326 2.30536 60.6221 2.41426C60.8116 2.52316 60.9692 2.67984 61.0793 2.86868L63.8743 7.66668L69.3023 8.84268C69.5158 8.88908 69.7134 8.99063 69.8754 9.13721C70.0374 9.2838 70.1582 9.47029 70.2257 9.67811C70.2932 9.88592 70.305 10.1078 70.26 10.3216C70.215 10.5354 70.1148 10.7337 69.9693 10.8967L66.2693 15.0377L66.8293 20.5627C66.8513 20.7802 66.816 20.9998 66.7267 21.1994C66.6374 21.399 66.4973 21.5717 66.3204 21.7002C66.1435 21.8288 65.9359 21.9086 65.7185 21.9319C65.5011 21.9551 65.2813 21.9209 65.0813 21.8327L59.9993 19.5927L54.9173 21.8327C54.7172 21.9209 54.4974 21.9551 54.28 21.9319C54.0626 21.9086 53.855 21.8288 53.6781 21.7002C53.5012 21.5717 53.3611 21.399 53.2718 21.1994C53.1825 20.9998 53.1472 20.7802 53.1693 20.5627L53.7293 15.0377L50.0293 10.8977C49.8835 10.7347 49.783 10.5363 49.7379 10.3224C49.6927 10.1085 49.7045 9.88641 49.772 9.67844C49.8395 9.47046 49.9604 9.28383 50.1226 9.13718C50.2847 8.99053 50.4826 8.88898 50.6963 8.84268L56.1243 7.66668L58.9193 2.86868Z" fill="#FDC109"/>
<path d="M82.9193 2.86868C83.0293 2.67984 83.1869 2.52316 83.3764 2.41426C83.5659 2.30536 83.7807 2.24805 83.9993 2.24805C84.2178 2.24805 84.4326 2.30536 84.6221 2.41426C84.8116 2.52316 84.9692 2.67984 85.0793 2.86868L87.8743 7.66668L93.3023 8.84268C93.5158 8.88908 93.7134 8.99063 93.8754 9.13721C94.0374 9.2838 94.1582 9.47029 94.2257 9.67811C94.2932 9.88592 94.305 10.1078 94.26 10.3216C94.215 10.5354 94.1148 10.7337 93.9693 10.8967L90.2693 15.0377L90.8293 20.5627C90.8513 20.7802 90.816 20.9998 90.7267 21.1994C90.6374 21.399 90.4973 21.5717 90.3204 21.7002C90.1435 21.8288 89.9359 21.9086 89.7185 21.9319C89.5011 21.9551 89.2813 21.9209 89.0813 21.8327L83.9993 19.5927L78.9173 21.8327C78.7172 21.9209 78.4974 21.9551 78.28 21.9319C78.0626 21.9086 77.855 21.8288 77.6781 21.7002C77.5012 21.5717 77.3611 21.399 77.2718 21.1994C77.1825 20.9998 77.1472 20.7802 77.1693 20.5627L77.7293 15.0377L74.0293 10.8977C73.8835 10.7347 73.783 10.5363 73.7379 10.3224C73.6927 10.1085 73.7045 9.88641 73.772 9.67844C73.8395 9.47046 73.9604 9.28383 74.1226 9.13718C74.2847 8.99053 74.4826 8.88898 74.6963 8.84268L80.1243 7.66668L82.9193 2.86868Z" fill="#FDC109"/>
<path d="M106.919 2.86868C107.029 2.67984 107.187 2.52316 107.376 2.41426C107.566 2.30536 107.781 2.24805 107.999 2.24805C108.218 2.24805 108.433 2.30536 108.622 2.41426C108.812 2.52316 108.969 2.67984 109.079 2.86868L111.874 7.66668L117.302 8.84268C117.516 8.88908 117.713 8.99063 117.875 9.13721C118.037 9.2838 118.158 9.47029 118.226 9.67811C118.293 9.88592 118.305 10.1078 118.26 10.3216C118.215 10.5354 118.115 10.7337 117.969 10.8967L114.269 15.0377L114.829 20.5627C114.851 20.7802 114.816 20.9998 114.727 21.1994C114.637 21.399 114.497 21.5717 114.32 21.7002C114.143 21.8288 113.936 21.9086 113.718 21.9319C113.501 21.9551 113.281 21.9209 113.081 21.8327L107.999 19.5927L102.917 21.8327C102.717 21.9209 102.497 21.9551 102.28 21.9319C102.063 21.9086 101.855 21.8288 101.678 21.7002C101.501 21.5717 101.361 21.399 101.272 21.1994C101.183 20.9998 101.147 20.7802 101.169 20.5627L101.729 15.0377L98.0293 10.8977C97.8835 10.7347 97.783 10.5363 97.7379 10.3224C97.6927 10.1085 97.7045 9.88641 97.772 9.67844C97.8395 9.47046 97.9604 9.28383 98.1226 9.13718C98.2847 8.99053 98.4826 8.88898 98.6963 8.84268L104.124 7.66668L106.919 2.86868Z" fill="#FDC109"/>
</svg>
