<svg version="1.2" xmlns="http://www.w3.org/2000/svg" viewBox="0 0 18 4" width="18" height="4">
	<title>filter-dot-icon-svg</title>
	<style>
		.s0 { fill: none;stroke: #000000;stroke-linecap: round;stroke-linejoin: round;stroke-width: 2 } 
	</style>
	<path fill-rule="evenodd" class="s0" d="m16 3c0.6 0 1-0.4 1-1 0-0.6-0.4-1-1-1-0.6 0-1 0.4-1 1 0 0.6 0.4 1 1 1z"/>
	<path fill-rule="evenodd" class="s0" d="m9 3c0.6 0 1-0.4 1-1 0-0.6-0.4-1-1-1-0.6 0-1 0.4-1 1 0 0.6 0.4 1 1 1z"/>
	<path fill-rule="evenodd" class="s0" d="m2 3c0.6 0 1-0.4 1-1 0-0.6-0.4-1-1-1-0.6 0-1 0.4-1 1 0 0.6 0.4 1 1 1z"/>
</svg>