<svg width="120" height="25" viewBox="0 0 120 25" fill="none" xmlns="http://www.w3.org/2000/svg">
<path d="M10.9193 3.36868C11.0293 3.17984 11.1869 3.02316 11.3764 2.91426C11.5659 2.80536 11.7807 2.74805 11.9993 2.74805C12.2178 2.74805 12.4326 2.80536 12.6221 2.91426C12.8116 3.02316 12.9692 3.17984 13.0793 3.36868L15.8743 8.16668L21.3023 9.34268C21.5158 9.38908 21.7134 9.49063 21.8754 9.63721C22.0374 9.7838 22.1582 9.97029 22.2257 10.1781C22.2932 10.3859 22.305 10.6078 22.26 10.8216C22.215 11.0354 22.1148 11.2337 21.9693 11.3967L18.2693 15.5377L18.8293 21.0627C18.8513 21.2802 18.816 21.4998 18.7267 21.6994C18.6374 21.899 18.4973 22.0717 18.3204 22.2002C18.1435 22.3288 17.9359 22.4086 17.7185 22.4319C17.5011 22.4551 17.2813 22.4209 17.0813 22.3327L11.9993 20.0927L6.91725 22.3327C6.71717 22.4209 6.49744 22.4551 6.28001 22.4319C6.06257 22.4086 5.85504 22.3288 5.67812 22.2002C5.50121 22.0717 5.36112 21.899 5.27182 21.6994C5.18253 21.4998 5.14716 21.2802 5.16925 21.0627L5.72925 15.5377L2.02925 11.3977C1.88348 11.2347 1.78301 11.0363 1.73787 10.8224C1.69272 10.6085 1.70449 10.3864 1.772 10.1784C1.8395 9.97046 1.96038 9.78383 2.12256 9.63718C2.28474 9.49053 2.48256 9.38898 2.69625 9.34268L8.12425 8.16668L10.9193 3.36868Z" fill="#FDC109"/>
<path d="M34.9193 3.36868C35.0293 3.17984 35.1869 3.02316 35.3764 2.91426C35.5659 2.80536 35.7807 2.74805 35.9993 2.74805C36.2178 2.74805 36.4326 2.80536 36.6221 2.91426C36.8116 3.02316 36.9692 3.17984 37.0793 3.36868L39.8743 8.16668L45.3023 9.34268C45.5158 9.38908 45.7134 9.49063 45.8754 9.63721C46.0374 9.7838 46.1582 9.97029 46.2257 10.1781C46.2932 10.3859 46.305 10.6078 46.26 10.8216C46.215 11.0354 46.1148 11.2337 45.9693 11.3967L42.2693 15.5377L42.8293 21.0627C42.8513 21.2802 42.816 21.4998 42.7267 21.6994C42.6374 21.899 42.4973 22.0717 42.3204 22.2002C42.1435 22.3288 41.9359 22.4086 41.7185 22.4319C41.5011 22.4551 41.2813 22.4209 41.0813 22.3327L35.9993 20.0927L30.9173 22.3327C30.7172 22.4209 30.4974 22.4551 30.28 22.4319C30.0626 22.4086 29.855 22.3288 29.6781 22.2002C29.5012 22.0717 29.3611 21.899 29.2718 21.6994C29.1825 21.4998 29.1472 21.2802 29.1693 21.0627L29.7293 15.5377L26.0293 11.3977C25.8835 11.2347 25.783 11.0363 25.7379 10.8224C25.6927 10.6085 25.7045 10.3864 25.772 10.1784C25.8395 9.97046 25.9604 9.78383 26.1226 9.63718C26.2847 9.49053 26.4826 9.38898 26.6963 9.34268L32.1243 8.16668L34.9193 3.36868Z" fill="#FDC109"/>
<path d="M58.9193 3.36868C59.0293 3.17984 59.1869 3.02316 59.3764 2.91426C59.5659 2.80536 59.7807 2.74805 59.9993 2.74805C60.2178 2.74805 60.4326 2.80536 60.6221 2.91426C60.8116 3.02316 60.9692 3.17984 61.0793 3.36868L63.8743 8.16668L69.3023 9.34268C69.5158 9.38908 69.7134 9.49063 69.8754 9.63721C70.0374 9.7838 70.1582 9.97029 70.2257 10.1781C70.2932 10.3859 70.305 10.6078 70.26 10.8216C70.215 11.0354 70.1148 11.2337 69.9693 11.3967L66.2693 15.5377L66.8293 21.0627C66.8513 21.2802 66.816 21.4998 66.7267 21.6994C66.6374 21.899 66.4973 22.0717 66.3204 22.2002C66.1435 22.3288 65.9359 22.4086 65.7185 22.4319C65.5011 22.4551 65.2813 22.4209 65.0813 22.3327L59.9993 20.0927L54.9173 22.3327C54.7172 22.4209 54.4974 22.4551 54.28 22.4319C54.0626 22.4086 53.855 22.3288 53.6781 22.2002C53.5012 22.0717 53.3611 21.899 53.2718 21.6994C53.1825 21.4998 53.1472 21.2802 53.1693 21.0627L53.7293 15.5377L50.0293 11.3977C49.8835 11.2347 49.783 11.0363 49.7379 10.8224C49.6927 10.6085 49.7045 10.3864 49.772 10.1784C49.8395 9.97046 49.9604 9.78383 50.1226 9.63718C50.2847 9.49053 50.4826 9.38898 50.6963 9.34268L56.1243 8.16668L58.9193 3.36868Z" fill="#FDC109"/>
<path d="M82.9193 3.36868C83.0293 3.17984 83.1869 3.02316 83.3764 2.91426C83.5659 2.80536 83.7807 2.74805 83.9993 2.74805C84.2178 2.74805 84.4326 2.80536 84.6221 2.91426C84.8116 3.02316 84.9692 3.17984 85.0793 3.36868L87.8743 8.16668L93.3023 9.34268C93.5158 9.38908 93.7134 9.49063 93.8754 9.63721C94.0374 9.7838 94.1582 9.97029 94.2257 10.1781C94.2932 10.3859 94.305 10.6078 94.26 10.8216C94.215 11.0354 94.1148 11.2337 93.9693 11.3967L90.2693 15.5377L90.8293 21.0627C90.8513 21.2802 90.816 21.4998 90.7267 21.6994C90.6374 21.899 90.4973 22.0717 90.3204 22.2002C90.1435 22.3288 89.9359 22.4086 89.7185 22.4319C89.5011 22.4551 89.2813 22.4209 89.0813 22.3327L83.9993 20.0927L78.9173 22.3327C78.7172 22.4209 78.4974 22.4551 78.28 22.4319C78.0626 22.4086 77.855 22.3288 77.6781 22.2002C77.5012 22.0717 77.3611 21.899 77.2718 21.6994C77.1825 21.4998 77.1472 21.2802 77.1693 21.0627L77.7293 15.5377L74.0293 11.3977C73.8835 11.2347 73.783 11.0363 73.7379 10.8224C73.6927 10.6085 73.7045 10.3864 73.772 10.1784C73.8395 9.97046 73.9604 9.78383 74.1226 9.63718C74.2847 9.49053 74.4826 9.38898 74.6963 9.34268L80.1243 8.16668L82.9193 3.36868Z" fill="#FDC109"/>
<path d="M106.919 3.36868C107.029 3.17984 107.187 3.02316 107.376 2.91426C107.566 2.80536 107.781 2.74805 107.999 2.74805C108.218 2.74805 108.433 2.80536 108.622 2.91426C108.812 3.02316 108.969 3.17984 109.079 3.36868L111.874 8.16668L117.302 9.34268C117.516 9.38908 117.713 9.49063 117.875 9.63721C118.037 9.7838 118.158 9.97029 118.226 10.1781C118.293 10.3859 118.305 10.6078 118.26 10.8216C118.215 11.0354 118.115 11.2337 117.969 11.3967L114.269 15.5377L114.829 21.0627C114.851 21.2802 114.816 21.4998 114.727 21.6994C114.637 21.899 114.497 22.0717 114.32 22.2002C114.143 22.3288 113.936 22.4086 113.718 22.4319C113.501 22.4551 113.281 22.4209 113.081 22.3327L107.999 20.0927L102.917 22.3327C102.717 22.4209 102.497 22.4551 102.28 22.4319C102.063 22.4086 101.855 22.3288 101.678 22.2002C101.501 22.0717 101.361 21.899 101.272 21.6994C101.183 21.4998 101.147 21.2802 101.169 21.0627L101.729 15.5377L98.0293 11.3977C97.8835 11.2347 97.783 11.0363 97.7379 10.8224C97.6927 10.6085 97.7045 10.3864 97.772 10.1784C97.8395 9.97046 97.9604 9.78383 98.1226 9.63718C98.2847 9.49053 98.4826 9.38898 98.6963 9.34268L104.124 8.16668L106.919 3.36868Z" fill="#FDC109"/>
</svg>
