<svg width="70" height="29" viewBox="0 0 70 29" fill="none" xmlns="http://www.w3.org/2000/svg">
<path d="M4.2435 17.5314H11.215V20.8465H0V0H4.2435V17.5314Z" fill="#FE6002"/>
<path d="M21.3686 21.1153C19.752 21.1153 18.2971 20.7669 17.0038 20.07C15.7106 19.3532 14.6901 18.3478 13.9425 17.0536C13.215 15.7594 12.8513 14.266 12.8513 12.5736C12.8513 10.8812 13.2251 9.38792 13.9728 8.09372C14.7406 6.79952 15.7813 5.80398 17.0948 5.10711C18.4082 4.39032 19.8733 4.03193 21.4898 4.03193C23.1064 4.03193 24.5714 4.39032 25.8849 5.10711C27.1983 5.80398 28.2289 6.79952 28.9766 8.09372C29.7444 9.38792 30.1284 10.8812 30.1284 12.5736C30.1284 14.266 29.7343 15.7594 28.9463 17.0536C28.1784 18.3478 27.1276 19.3532 25.7939 20.07C24.4805 20.7669 23.0054 21.1153 21.3686 21.1153ZM21.3686 17.4717C22.1365 17.4717 22.8538 17.2925 23.5206 16.9341C24.2077 16.5558 24.7533 15.9983 25.1574 15.2616C25.5616 14.5249 25.7636 13.6289 25.7636 12.5736C25.7636 11.0007 25.3393 9.79609 24.4906 8.95984C23.6621 8.10367 22.6416 7.67559 21.4292 7.67559C20.2168 7.67559 19.1963 8.10367 18.3678 8.95984C17.5595 9.79609 17.1554 11.0007 17.1554 12.5736C17.1554 14.1466 17.5494 15.3611 18.3375 16.2173C19.1458 17.0536 20.1562 17.4717 21.3686 17.4717Z" fill="#FE6002"/>
<path d="M39.8186 4.03193C41.0714 4.03193 42.1727 4.28081 43.1224 4.77858C44.0722 5.25644 44.8198 5.88363 45.3654 6.66014V4.30072H49.6393V20.966C49.6393 22.4991 49.326 23.863 48.6996 25.0577C48.0732 26.2722 47.1336 27.2279 45.8807 27.9248C44.6279 28.6416 43.1123 29 41.3341 29C38.9497 29 36.9896 28.4525 35.4538 27.3574C33.9383 26.2623 33.0795 24.769 32.8774 22.8774H37.0906C37.3129 23.6341 37.7878 24.2314 38.5152 24.6694C39.2629 25.1274 40.1621 25.3563 41.2129 25.3563C42.4455 25.3563 43.4458 24.988 44.2136 24.2513C44.9815 23.5345 45.3654 22.4394 45.3654 20.966V18.3975C44.8198 19.174 44.0621 19.8211 43.0921 20.3388C42.1424 20.8565 41.0512 21.1153 39.8186 21.1153C38.4041 21.1153 37.1108 20.757 35.9388 20.0402C34.7668 19.3234 33.8373 18.3179 33.1502 17.0237C32.4834 15.7096 32.15 14.2063 32.15 12.5139C32.15 10.8414 32.4834 9.35805 33.1502 8.06385C33.8373 6.76965 34.7567 5.77412 35.9085 5.07724C37.0805 4.38036 38.3839 4.03193 39.8186 4.03193ZM45.3654 12.5736C45.3654 11.5582 45.1634 10.6921 44.7592 9.97528C44.3551 9.23859 43.8095 8.68108 43.1224 8.30278C42.4354 7.90457 41.6978 7.70546 40.9098 7.70546C40.1217 7.70546 39.3942 7.89461 38.7274 8.27291C38.0606 8.65122 37.515 9.20872 37.0906 9.94542C36.6865 10.6622 36.4844 11.5184 36.4844 12.5139C36.4844 13.5094 36.6865 14.3855 37.0906 15.1421C37.515 15.8788 38.0606 16.4463 38.7274 16.8445C39.4144 17.2427 40.1419 17.4418 40.9098 17.4418C41.6978 17.4418 42.4354 17.2527 43.1224 16.8744C43.8095 16.4761 44.3551 15.9186 44.7592 15.2019C45.1634 14.4652 45.3654 13.5891 45.3654 12.5736Z" fill="#FE6002"/>
<path d="M61.2402 21.1153C59.6236 21.1153 58.1687 20.7669 56.8755 20.07C55.5822 19.3532 54.5617 18.3478 53.8141 17.0536C53.0866 15.7594 52.7229 14.266 52.7229 12.5736C52.7229 10.8812 53.0967 9.38792 53.8444 8.09372C54.6123 6.79952 55.6529 5.80398 56.9664 5.10711C58.2799 4.39032 59.7449 4.03193 61.3614 4.03193C62.978 4.03193 64.443 4.39032 65.7565 5.10711C67.07 5.80398 68.1005 6.79952 68.8482 8.09372C69.6161 9.38792 70 10.8812 70 12.5736C70 14.266 69.606 15.7594 68.8179 17.0536C68.05 18.3478 66.9992 19.3532 65.6656 20.07C64.3521 20.7669 62.877 21.1153 61.2402 21.1153ZM61.2402 17.4717C62.0081 17.4717 62.7254 17.2925 63.3923 16.9341C64.0793 16.5558 64.6249 15.9983 65.029 15.2616C65.4332 14.5249 65.6353 13.6289 65.6353 12.5736C65.6353 11.0007 65.2109 9.79609 64.3622 8.95984C63.5337 8.10367 62.5133 7.67559 61.3008 7.67559C60.0884 7.67559 59.0679 8.10367 58.2394 8.95984C57.4312 9.79609 57.027 11.0007 57.027 12.5736C57.027 14.1466 57.4211 15.3611 58.2091 16.2173C59.0174 17.0536 60.0278 17.4717 61.2402 17.4717Z" fill="#FE6002"/>
</svg>
