<svg width="24" height="24" viewBox="0 0 24 24" fill="none" xmlns="http://www.w3.org/2000/svg">
<path d="M23.5003 23.5003L18.0715 18.0715M18.0715 18.0715C19.0001 17.1429 19.7367 16.0405 20.2393 14.8272C20.7418 13.6139 21.0005 12.3135 21.0005 11.0003C21.0005 9.687 20.7419 8.38661 20.2393 7.17332C19.7367 5.96004 19.0001 4.85762 18.0715 3.92901C17.1429 3.0004 16.0405 2.26378 14.8272 1.76122C13.6139 1.25866 12.3135 1 11.0003 1C9.687 1 8.38661 1.25866 7.17332 1.76122C5.96004 2.26378 4.85762 3.0004 3.92901 3.92901C2.0536 5.80442 1 8.34802 1 11.0003C1 13.6525 2.0536 16.1961 3.92901 18.0715C5.80442 19.9469 8.34802 21.0005 11.0003 21.0005C13.6525 21.0005 16.1961 19.9469 18.0715 18.0715Z" stroke="#574F4A" stroke-linecap="round" stroke-linejoin="round"/>
</svg>
