<svg width="28" height="28" viewBox="0 0 28 28" fill="none" xmlns="http://www.w3.org/2000/svg">
<path d="M25.25 12.8875V7.75C25.2505 7.08982 24.9899 6.45623 24.525 5.9875C24.2983 5.74577 24.0228 5.55501 23.7168 5.42786C23.4108 5.30071 23.0812 5.24008 22.75 5.25H17.75V2.75C17.7592 2.41999 17.6994 2.09171 17.5746 1.78608C17.4498 1.48046 17.2626 1.20423 17.025 0.974998C16.7958 0.737424 16.5195 0.550248 16.2139 0.425417C15.9083 0.300587 15.58 0.240842 15.25 0.249998H10.25C9.92 0.240842 9.59171 0.300587 9.28609 0.425417C8.98047 0.550248 8.70423 0.737424 8.475 0.974998C8.23743 1.20423 8.05025 1.48046 7.92542 1.78608C7.80059 2.09171 7.74084 2.41999 7.75 2.75V5.25H2.75C2.41877 5.24008 2.08921 5.30071 1.78319 5.42786C1.47717 5.55501 1.20168 5.74577 0.975001 5.9875C0.5101 6.45623 0.249474 7.08982 0.250001 7.75V21.5C0.249474 22.1602 0.5101 22.7938 0.975001 23.2625C1.20168 23.5042 1.47717 23.695 1.78319 23.8221C2.08921 23.9493 2.41877 24.0099 2.75 24H11.825C12.5121 25.0035 13.4008 25.8527 14.4344 26.4935C15.468 27.1342 16.6239 27.5525 17.8282 27.7216C19.0325 27.8907 20.2589 27.8069 21.429 27.4755C22.5991 27.1441 23.6873 26.5725 24.6241 25.797C25.561 25.0216 26.3259 24.0593 26.87 22.9717C27.4142 21.8841 27.7256 20.695 27.7845 19.4803C27.8434 18.2656 27.6484 17.0519 27.212 15.9168C26.7757 14.7817 26.1074 13.7499 25.25 12.8875ZM10.25 2.75H15.25V5.25H10.25M2.75 21.5V7.75H22.75V11.1C21.5808 10.5356 20.2983 10.2449 19 10.25C16.6794 10.25 14.4538 11.1719 12.8128 12.8128C11.1719 14.4538 10.25 16.6794 10.25 19C10.2493 19.8465 10.3714 20.6886 10.6125 21.5M22.75 24C21.6681 24.8114 20.3523 25.25 19 25.25C17.6477 25.25 16.3319 24.8114 15.25 24C14.4694 23.4219 13.8362 22.6679 13.4018 21.7991C12.9674 20.9303 12.7441 19.9713 12.75 19C12.75 17.3424 13.4085 15.7527 14.5806 14.5806C15.7527 13.4085 17.3424 12.75 19 12.75C20.3532 12.7445 21.6707 13.1837 22.75 14C23.5262 14.5822 24.1562 15.3371 24.5902 16.2049C25.0241 17.0728 25.25 18.0297 25.25 19C25.25 19.9703 25.0241 20.9272 24.5902 21.7951C24.1562 22.6629 23.5262 23.4178 22.75 24ZM17.75 15.25H19.625V18.775L22.675 20.5375L21.7375 22.1625L17.75 19.8625V15.25Z" fill="black"/>
</svg>
