<svg width="16" height="16" viewBox="0 0 16 16" fill="none" xmlns="http://www.w3.org/2000/svg">
<path d="M0.999587 8.99935L12.1696 8.99935L7.28959 13.8794C6.89959 14.2694 6.89959 14.9094 7.28959 15.2994C7.3821 15.3921 7.49199 15.4656 7.61296 15.5158C7.73394 15.566 7.86362 15.5918 7.99459 15.5918C8.12556 15.5918 8.25524 15.566 8.37621 15.5158C8.49718 15.4656 8.60707 15.3921 8.69959 15.2994L15.2896 8.70935C15.3823 8.61684 15.4558 8.50695 15.506 8.38598C15.5562 8.265 15.582 8.13532 15.582 8.00435C15.582 7.87338 15.5562 7.7437 15.506 7.62273C15.4558 7.50176 15.3823 7.39187 15.2896 7.29935L8.69959 0.709352C8.607 0.616771 8.49709 0.543332 8.37613 0.493227C8.25517 0.443122 8.12552 0.417334 7.99459 0.417334C7.86366 0.417334 7.73401 0.443122 7.61304 0.493227C7.49208 0.543332 7.38217 0.616771 7.28959 0.709352C7.19701 0.801934 7.12357 0.911846 7.07346 1.03281C7.02336 1.15377 6.99757 1.28342 6.99757 1.41435C6.99757 1.54528 7.02336 1.67493 7.07346 1.7959C7.12357 1.91686 7.19701 2.02677 7.28959 2.11935L12.1696 6.99935L0.999587 6.99935C0.449587 6.99935 -0.000412941 7.44935 -0.000412941 7.99935C-0.000412941 8.54935 0.449587 8.99935 0.999587 8.99935Z" fill="#BA68C8"/>
</svg>
