<svg width="119" height="49" viewBox="0 0 119 49" fill="none" xmlns="http://www.w3.org/2000/svg">
<path d="M7.21395 29.622H19.0654V35.2235H0V0H7.21395V29.622Z" fill="#FE6002"/>
<path d="M36.3266 35.6777C33.5784 35.6777 31.1051 35.0889 28.9065 33.9114C26.708 32.7003 24.9732 31.0014 23.7022 28.8146C22.4655 26.6279 21.8472 24.1047 21.8472 21.2451C21.8472 18.3855 22.4827 15.8623 23.7537 13.6756C25.0591 11.4888 26.8282 9.80673 29.0611 8.62925C31.294 7.41813 33.7845 6.81256 36.5327 6.81256C39.2809 6.81256 41.7714 7.41813 44.0043 8.62925C46.2372 9.80673 47.9891 11.4888 49.2602 13.6756C50.5656 15.8623 51.2182 18.3855 51.2182 21.2451C51.2182 24.1047 50.5484 26.6279 49.2086 28.8146C47.9033 31.0014 46.117 32.7003 43.8497 33.9114C41.6168 35.0889 39.1091 35.6777 36.3266 35.6777ZM36.3266 29.5211C37.632 29.5211 38.8515 29.2183 39.9851 28.6128C41.1531 27.9736 42.0806 27.0316 42.7676 25.7868C43.4547 24.5421 43.7982 23.0281 43.7982 21.2451C43.7982 18.5874 43.0768 16.552 41.634 15.139C40.2256 13.6924 38.4908 12.9691 36.4296 12.9691C34.3685 12.9691 32.6337 13.6924 31.2253 15.139C29.8512 16.552 29.1642 18.5874 29.1642 21.2451C29.1642 23.9028 29.834 25.955 31.1738 27.4016C32.5479 28.8146 34.2655 29.5211 36.3266 29.5211Z" fill="#FE6002"/>
<path d="M67.6916 6.81256C69.8214 6.81256 71.6936 7.23309 73.3082 8.07415C74.9227 8.88156 76.1937 9.9413 77.1212 11.2533V7.26673H84.3867V35.4253C84.3867 38.0158 83.8543 40.3203 82.7894 42.3388C81.7244 44.391 80.1271 46.0058 77.9972 47.1833C75.8674 48.3944 73.291 49 70.268 49C66.2144 49 62.8823 48.0748 60.2715 46.2245C57.6951 44.3742 56.2351 41.851 55.8916 38.655H63.054C63.4319 39.9334 64.2392 40.9427 65.4759 41.6828C66.7469 42.4566 68.2756 42.8435 70.0619 42.8435C72.1574 42.8435 73.8578 42.2211 75.1632 40.9763C76.4685 39.7652 77.1212 37.9149 77.1212 35.4253V31.0855C76.1937 32.3975 74.9055 33.4909 73.2566 34.3656C71.6421 35.2403 69.7871 35.6777 67.6916 35.6777C65.2869 35.6777 63.0884 35.0721 61.096 33.861C59.1035 32.6498 57.5233 30.9509 56.3554 28.7642C55.2217 26.5438 54.6549 24.0038 54.6549 21.1442C54.6549 18.3182 55.2217 15.8119 56.3554 13.6251C57.5233 11.4384 59.0864 9.75626 61.0444 8.57879C63.0369 7.4013 65.2526 6.81256 67.6916 6.81256ZM77.1212 21.2451C77.1212 19.5294 76.7777 18.0659 76.0907 16.8548C75.4036 15.61 74.4761 14.668 73.3082 14.0288C72.1402 13.356 70.8863 13.0196 69.5466 13.0196C68.2069 13.0196 66.9702 13.3392 65.8366 13.9784C64.7029 14.6176 63.7754 15.5596 63.054 16.8043C62.367 18.0154 62.0235 19.4621 62.0235 21.1442C62.0235 22.8263 62.367 24.3066 63.054 25.585C63.7754 26.8297 64.7029 27.7885 65.8366 28.4614C67.0045 29.1342 68.2412 29.4706 69.5466 29.4706C70.8863 29.4706 72.1402 29.151 73.3082 28.5118C74.4761 27.839 75.4036 26.897 76.0907 25.6859C76.7777 24.4411 77.1212 22.9609 77.1212 21.2451Z" fill="#FE6002"/>
<path d="M104.108 35.6777C101.36 35.6777 98.8868 35.0889 96.6883 33.9114C94.4897 32.7003 92.755 31.0014 91.4839 28.8146C90.2473 26.6279 89.6289 24.1047 89.6289 21.2451C89.6289 18.3855 90.2644 15.8623 91.5355 13.6756C92.8408 11.4888 94.61 9.80673 96.8429 8.62925C99.0757 7.41813 101.566 6.81256 104.314 6.81256C107.063 6.81256 109.553 7.41813 111.786 8.62925C114.019 9.80673 115.771 11.4888 117.042 13.6756C118.347 15.8623 119 18.3855 119 21.2451C119 24.1047 118.33 26.6279 116.99 28.8146C115.685 31.0014 113.899 32.7003 111.631 33.9114C109.399 35.0889 106.891 35.6777 104.108 35.6777ZM104.108 29.5211C105.414 29.5211 106.633 29.2183 107.767 28.6128C108.935 27.9736 109.862 27.0316 110.549 25.7868C111.236 24.5421 111.58 23.0281 111.58 21.2451C111.58 18.5874 110.859 16.552 109.416 15.139C108.007 13.6924 106.273 12.9691 104.211 12.9691C102.15 12.9691 100.415 13.6924 99.007 15.139C97.633 16.552 96.9459 18.5874 96.9459 21.2451C96.9459 23.9028 97.6158 25.955 98.9555 27.4016C100.33 28.8146 102.047 29.5211 104.108 29.5211Z" fill="#FE6002"/>
</svg>
