<svg version="1.2" xmlns="http://www.w3.org/2000/svg" viewBox="0 0 6 6" width="6" height="6">
	<title>close</title>
	<style>
		.s0 { fill: #000000 } 
	</style>
	<g>
		<path class="s0" d="m3.2 0.5q-0.1 0-0.1 0.1-0.1 0-0.1 0-0.1 0-0.1 0.1 0 0 0 0.1v2.1q0 0.1 0.1 0.2 0.1 0.1 0.2 0.1 0.1 0 0.2-0.1 0-0.1 0-0.2v-2.1q0-0.1 0-0.1 0-0.1 0-0.1-0.1 0-0.1-0.1-0.1 0-0.1 0zm1.5 0.6q0 0 0 0 0 0 0 0 0 0 0 0 0 0 0 0-0.1 0-0.2 0 0 0.1 0 0.1-0.1 0.1 0 0.2 0 0.1 0 0.1c0.5 0.4 0.8 1 0.8 1.7 0 1.1-1 2.1-2.1 2.1q-0.4 0-0.8-0.2-0.4-0.1-0.7-0.4-0.3-0.3-0.5-0.7-0.1-0.4-0.1-0.8c0-0.7 0.2-1.3 0.7-1.7q0.1 0 0.1-0.1 0-0.2-0.1-0.2 0-0.1-0.1-0.1-0.2 0-0.2 0-0.3 0.2-0.4 0.5-0.2 0.2-0.3 0.4-0.1 0.3-0.2 0.6-0.1 0.3-0.1 0.6 0 0.5 0.2 1 0.2 0.5 0.6 0.8 0.4 0.4 0.9 0.6 0.4 0.2 1 0.2 0.5 0 1-0.2 0.5-0.2 0.9-0.6 0.3-0.3 0.5-0.8 0.2-0.5 0.2-1c0-0.9-0.3-1.6-0.9-2.1q0 0-0.1 0 0 0 0 0 0 0 0 0-0.1 0-0.1 0z"/>
	</g>
</svg>