<svg width="7" height="31" viewBox="0 0 7 31" fill="none" xmlns="http://www.w3.org/2000/svg">
<path d="M3.5 0.875C1.7125 0.875 0.25 2.3375 0.25 4.125C0.25 5.9125 1.7125 7.375 3.5 7.375C5.2875 7.375 6.75 5.9125 6.75 4.125C6.75 2.3375 5.2875 0.875 3.5 0.875ZM3.5 23.625C1.7125 23.625 0.25 25.0875 0.25 26.875C0.25 28.6625 1.7125 30.125 3.5 30.125C5.2875 30.125 6.75 28.6625 6.75 26.875C6.75 25.0875 5.2875 23.625 3.5 23.625ZM3.5 12.25C1.7125 12.25 0.25 13.7125 0.25 15.5C0.25 17.2875 1.7125 18.75 3.5 18.75C5.2875 18.75 6.75 17.2875 6.75 15.5C6.75 13.7125 5.2875 12.25 3.5 12.25Z" fill="#333037"/>
</svg>
