<svg width="22" height="20" viewBox="0 0 22 20" fill="none" xmlns="http://www.w3.org/2000/svg">
<path d="M9.91925 0.868194C10.0293 0.679353 10.1869 0.522668 10.3764 0.413768C10.5659 0.304867 10.7807 0.247559 10.9993 0.247559C11.2178 0.247559 11.4326 0.304867 11.6221 0.413768C11.8116 0.522668 11.9692 0.679353 12.0793 0.868194L14.8743 5.66619L20.3023 6.84219C20.5158 6.88859 20.7134 6.99014 20.8754 7.13673C21.0374 7.28331 21.1582 7.4698 21.2257 7.67762C21.2932 7.88543 21.305 8.1073 21.26 8.32111C21.215 8.53493 21.1148 8.73321 20.9693 8.89619L17.2693 13.0372L17.8293 18.5622C17.8513 18.7798 17.816 18.9993 17.7267 19.1989C17.6374 19.3985 17.4973 19.5712 17.3204 19.6997C17.1435 19.8283 16.9359 19.9082 16.7185 19.9314C16.5011 19.9546 16.2813 19.9204 16.0813 19.8322L10.9993 17.5922L5.91725 19.8322C5.71717 19.9204 5.49744 19.9546 5.28001 19.9314C5.06257 19.9082 4.85504 19.8283 4.67812 19.6997C4.50121 19.5712 4.36112 19.3985 4.27182 19.1989C4.18253 18.9993 4.14716 18.7798 4.16925 18.5622L4.72925 13.0372L1.02925 8.89719C0.88348 8.73422 0.783008 8.53586 0.737866 8.32191C0.692725 8.10797 0.704493 7.88592 0.771996 7.67795C0.8395 7.46997 0.960376 7.28334 1.12256 7.13669C1.28474 6.99004 1.48256 6.88849 1.69625 6.84219L7.12425 5.66619L9.91925 0.868194Z" fill="#FE6002"/>
</svg>
