<svg version="1.2" xmlns="http://www.w3.org/2000/svg" viewBox="0 0 14 14" width="14" height="14">
	<title>test</title>
	<style>
		.s0 { fill: #000000 } 
	</style>
	<g>
		<g id="19">
			<path class="s0" d="m7 0q0.3 0 0.6 0.2 0.2 0.1 0.3 0.4 0.1 0.3 0.1 0.6-0.1 0.3-0.3 0.5l-5.3 5.3 5.3 5.3q0.3 0.3 0.2 0.7 0 0.4-0.2 0.6-0.3 0.3-0.7 0.3-0.4 0.1-0.7-0.2l-6-6q-0.1-0.1-0.2-0.3-0.1-0.2-0.1-0.4 0-0.2 0.1-0.4 0.1-0.2 0.2-0.3l6-6q0.1-0.1 0.2-0.1 0-0.1 0.1-0.1 0.1-0.1 0.2-0.1 0.1 0 0.2 0z"/>
			<path class="s0" d="m13 0q0.3 0 0.6 0.2 0.2 0.1 0.3 0.4 0.1 0.3 0.1 0.6-0.1 0.3-0.3 0.5l-5.3 5.3 5.3 5.3q0.3 0.3 0.3 0.7 0 0.4-0.3 0.7-0.3 0.3-0.7 0.3-0.4 0-0.7-0.3l-6-6q-0.1-0.1-0.2-0.3-0.1-0.2-0.1-0.4 0-0.2 0.1-0.4 0.1-0.2 0.2-0.3l6-6q0.1-0.1 0.1-0.1 0.1-0.1 0.2-0.1 0.1-0.1 0.2-0.1 0.1 0 0.2 0z"/>
		</g>
	</g>
</svg>