<svg width="60" height="60" viewBox="0 0 60 60" fill="none" xmlns="http://www.w3.org/2000/svg">
<path d="M30.6625 1.92087L32.0163 3.11814C32.9227 3.9198 34.222 4.09839 35.3111 3.57102L36.9377 2.78339C37.3923 2.56329 37.9396 2.71664 38.2136 3.14086L39.1941 4.65898C39.8507 5.67546 41.0536 6.19798 42.2447 5.98401L44.0234 5.66443C44.5205 5.57513 45.0061 5.87045 45.1555 6.35286L45.6901 8.07924C46.0481 9.23516 47.0654 10.0629 48.27 10.1782L50.0691 10.3503C50.5718 10.3985 50.9597 10.8138 50.9734 11.3187L51.0224 13.1253C51.0552 14.3349 51.8116 15.4064 52.9404 15.8424L54.6263 16.4936C55.0974 16.6755 55.3588 17.1802 55.2358 17.67L54.7956 19.4228C54.5009 20.5964 54.9401 21.8323 55.9094 22.5566L57.357 23.6385C57.7616 23.9408 57.8772 24.4973 57.6266 24.9358L56.7298 26.5048C56.1293 27.5554 56.2189 28.8639 56.9568 29.8229L58.0589 31.2553C58.3668 31.6555 58.3281 32.2225 57.9685 32.5771L56.6816 33.846C55.82 34.6957 55.5531 35.9798 56.0049 37.1023L56.6797 38.7789C56.8683 39.2474 56.6779 39.7829 56.236 40.0274L54.6545 40.902C53.5956 41.4877 52.9922 42.6522 53.1244 43.855L53.3218 45.6515C53.377 46.1534 53.0492 46.6178 52.5578 46.7339L50.7989 47.1495C49.6213 47.4277 48.7261 48.3862 48.5289 49.5801L48.2343 51.3632C48.152 51.8615 47.7111 52.2202 47.2065 52.1994L45.4008 52.125C44.1917 52.0752 43.0711 52.7566 42.5591 53.8531L41.7944 55.4906C41.5807 55.9481 41.0594 56.1746 40.5791 56.0184L38.8604 55.4596C37.7096 55.0855 36.4467 55.4393 35.6579 56.3569L34.4798 57.7274C34.1505 58.1104 33.5875 58.1877 33.1671 57.9078L31.6629 56.906C30.6558 56.2353 29.3442 56.2353 28.3371 56.906L26.8329 57.9078C26.4125 58.1877 25.8495 58.1104 25.5202 57.7274L24.3421 56.3569C23.5533 55.4393 22.2904 55.0855 21.1396 55.4596L19.4209 56.0184C18.9406 56.1746 18.4193 55.9481 18.2056 55.4906L17.4409 53.8531C16.9289 52.7566 15.8083 52.0752 14.5992 52.125L12.7935 52.1994C12.2889 52.2202 11.848 51.8615 11.7657 51.3632L11.4712 49.5801C11.2739 48.3862 10.3787 47.4277 9.20107 47.1495L7.44224 46.7339C6.95075 46.6178 6.62298 46.1534 6.67816 45.6515L6.8756 43.855C7.0078 42.6522 6.4044 41.4877 5.34548 40.902L3.76398 40.0274C3.32206 39.7829 3.13172 39.2474 3.32028 38.7789L3.99507 37.1023C4.44689 35.9798 4.18005 34.6957 3.3184 33.846L2.03154 32.5771C1.67194 32.2225 1.63315 31.6555 1.94112 31.2553L3.04322 29.8229C3.78115 28.8639 3.87065 27.5554 3.27018 26.5048L2.37339 24.9358C2.12279 24.4973 2.23843 23.9408 2.64296 23.6385L4.09062 22.5566C5.05993 21.8323 5.49914 20.5964 5.20439 19.4228L4.76417 17.67C4.64116 17.1802 4.90265 16.6755 5.37374 16.4936L7.05961 15.8424C8.18841 15.4064 8.94475 14.3349 8.97757 13.1253L9.02658 11.3187C9.04028 10.8138 9.42822 10.3985 9.93094 10.3503L11.73 10.1782C12.9346 10.0629 13.9519 9.23516 14.3099 8.07923L14.8445 6.35286C14.9939 5.87045 15.4795 5.57513 15.9766 5.66443L17.7553 5.98401C18.9464 6.19798 20.1493 5.67546 20.8059 4.65898L21.7864 3.14086C22.0604 2.71664 22.6077 2.56329 23.0623 2.78339L24.6889 3.57102C25.778 4.09839 27.0773 3.9198 27.9837 3.11814L29.3375 1.92087C29.7158 1.58631 30.2842 1.58631 30.6625 1.92087Z" stroke="url(#paint0_linear_61_498)" stroke-width="2"/>
<path d="M17.2388 26.0275L17.2356 26.0373L17.2328 26.0472C16.9967 26.8707 17.4309 27.5992 18.207 28.1391L23.8586 32.1786L21.6479 38.7906C21.6478 38.7911 21.6476 38.7916 21.6474 38.7922C21.5003 39.2236 21.4289 39.6438 21.4887 40.0327C21.5512 40.4389 21.7527 40.7782 22.0831 41.0281C22.4285 41.299 22.8256 41.3861 23.239 41.3125C23.6277 41.2433 24.0095 41.0367 24.3786 40.7704L24.3814 40.7683L30.0026 36.6526L35.6222 40.7665C35.6226 40.7668 35.6231 40.7671 35.6235 40.7675C35.9845 41.035 36.3626 41.2426 36.7529 41.3122C37.1688 41.3864 37.5685 41.2977 37.9205 41.0299L37.9206 41.03L37.9261 41.0256C38.2489 40.7728 38.4431 40.4325 38.5019 40.0283C38.5581 39.6422 38.4875 39.2241 38.3408 38.7925C38.3407 38.792 38.3405 38.7915 38.3403 38.791L36.1297 32.1791L41.8019 28.1376L41.8024 28.1372C42.5291 27.618 43.053 26.8755 42.7455 26.0157L42.7455 26.0157L42.7434 26.0098C42.604 25.635 42.3467 25.3441 41.9849 25.1564C41.6365 24.9757 41.215 24.9024 40.7479 24.9024L40.744 24.9024L33.8034 24.9565L31.6827 18.3036C31.6827 18.3036 31.6826 18.3035 31.6826 18.3034C31.5464 17.8743 31.3582 17.4916 31.0839 17.211C30.7952 16.9156 30.4291 16.753 30.0034 16.753C29.5796 16.753 29.2094 16.9144 28.9179 17.2093C28.6399 17.4906 28.4508 17.8744 28.3227 18.3083L26.2035 24.9565L19.2433 24.9024V24.9024H19.2394C18.3427 24.9024 17.5132 25.2006 17.2388 26.0275ZM48.9689 30.0015C48.9689 40.3742 40.3573 48.9678 30.0026 48.9678C19.6295 48.9678 11.0371 40.3746 11.0371 30.0015C11.0371 19.6461 19.6118 11.0352 29.9831 11.0352C40.3381 11.0352 48.9689 19.6478 48.9689 30.0015Z" fill="url(#paint1_linear_61_498)" stroke="url(#paint2_linear_61_498)"/>
<defs>
<linearGradient id="paint0_linear_61_498" x1="30" y1="0" x2="30" y2="60" gradientUnits="userSpaceOnUse">
<stop stop-color="#FE6002"/>
<stop offset="1" stop-color="#CA0CB6"/>
</linearGradient>
<linearGradient id="paint1_linear_61_498" x1="30.003" y1="10.5352" x2="30.003" y2="49.4678" gradientUnits="userSpaceOnUse">
<stop stop-color="#FE6002"/>
<stop offset="1" stop-color="#CA0CB6"/>
</linearGradient>
<linearGradient id="paint2_linear_61_498" x1="30.003" y1="10.5352" x2="30.003" y2="49.4678" gradientUnits="userSpaceOnUse">
<stop stop-color="#FE6002"/>
<stop offset="1" stop-color="#CA0CB6"/>
</linearGradient>
</defs>
</svg>
