<svg width="28" height="28" viewBox="0 0 28 28" fill="none" xmlns="http://www.w3.org/2000/svg">
<path d="M25 12.6384V7.50091C25.0005 6.84073 24.7399 6.20714 24.275 5.73841C24.0483 5.49669 23.7728 5.30593 23.4668 5.17878C23.1608 5.05163 22.8312 4.991 22.5 5.00091H17.5V2.50091C17.5092 2.17091 17.4494 1.84262 17.3246 1.537C17.1998 1.23138 17.0126 0.955141 16.775 0.725914C16.5458 0.48834 16.2695 0.301164 15.9639 0.176333C15.6583 0.0515022 15.33 -0.00824198 15 0.000913581H10C9.67 -0.00824198 9.34171 0.0515022 9.03609 0.176333C8.73047 0.301164 8.45423 0.48834 8.225 0.725914C7.98743 0.955141 7.80025 1.23138 7.67542 1.537C7.55059 1.84262 7.49084 2.17091 7.5 2.50091V5.00091H2.5C2.16877 4.991 1.83921 5.05163 1.53319 5.17878C1.22717 5.30593 0.951682 5.49669 0.725001 5.73841C0.2601 6.20714 -0.00052603 6.84073 7.9714e-07 7.50091V21.2509C-0.00052603 21.9111 0.2601 22.5447 0.725001 23.0134C0.951682 23.2551 1.22717 23.4459 1.53319 23.5731C1.83921 23.7002 2.16877 23.7608 2.5 23.7509H11.575C12.2621 24.7544 13.1508 25.6036 14.1844 26.2444C15.218 26.8852 16.3739 27.3034 17.5782 27.4725C18.7825 27.6416 20.0089 27.5578 21.179 27.2264C22.3491 26.8951 23.4373 26.3234 24.3741 25.5479C25.311 24.7725 26.0759 23.8102 26.62 22.7226C27.1642 21.635 27.4756 20.4459 27.5345 19.2312C27.5934 18.0165 27.3984 16.8029 26.962 15.6677C26.5257 14.5326 25.8574 13.5009 25 12.6384ZM10 2.50091H15V5.00091H10M2.5 21.2509V7.50091H22.5V10.8509C21.3308 10.2865 20.0483 9.99585 18.75 10.0009C16.4294 10.0009 14.2038 10.9228 12.5628 12.5637C10.9219 14.2047 10 16.4303 10 18.7509C9.99927 19.5974 10.1214 20.4395 10.3625 21.2509M22.5 23.7509C21.4181 24.5623 20.1023 25.0009 18.75 25.0009C17.3977 25.0009 16.0819 24.5623 15 23.7509C14.2194 23.1729 13.5862 22.4188 13.1518 21.55C12.7174 20.6812 12.4941 19.7222 12.5 18.7509C12.5 17.0933 13.1585 15.5036 14.3306 14.3315C15.5027 13.1594 17.0924 12.5009 18.75 12.5009C20.1032 12.4954 21.4207 12.9346 22.5 13.7509C23.2762 14.3331 23.9062 15.088 24.3402 15.9558C24.7741 16.8237 25 17.7806 25 18.7509C25 19.7212 24.7741 20.6782 24.3402 21.546C23.9062 22.4138 23.2762 23.1687 22.5 23.7509ZM17.5 15.0009H19.375V18.5259L22.425 20.2884L21.4875 21.9134L17.5 19.6134V15.0009Z" fill="#BA68C8"/>
</svg>
