<svg width="12" height="6" viewBox="0 0 12 6" fill="none" xmlns="http://www.w3.org/2000/svg">
<path d="M7.14439 1.15125L2.94439 5.27625C2.8392 5.3796 2.69763 5.4375 2.55017 5.4375C2.40271 5.4375 2.26114 5.3796 2.15595 5.27625L0.355952 3.50859C0.303228 3.45682 0.261217 3.39517 0.232319 3.32717C0.20342 3.25916 0.188198 3.18613 0.187523 3.11225C0.186161 2.96302 0.244133 2.81937 0.348686 2.71289C0.400456 2.66016 0.462103 2.61815 0.530108 2.58926C0.598114 2.56036 0.671145 2.54513 0.745033 2.54446C0.894256 2.5431 1.03791 2.60107 1.14439 2.70562L2.55064 4.08656L6.35642 0.348748C6.46284 0.244195 6.60643 0.186198 6.75561 0.187517C6.90479 0.188835 7.04734 0.249361 7.15189 0.355779C7.25644 0.462197 7.31444 0.60579 7.31312 0.75497C7.3118 0.904149 7.25128 1.04669 7.14486 1.15125H7.14439ZM11.6514 0.354373C11.5996 0.301469 11.5379 0.259311 11.4698 0.230315C11.4017 0.20132 11.3285 0.186058 11.2544 0.185405C11.1804 0.184752 11.107 0.19872 11.0384 0.226509C10.9697 0.254298 10.9073 0.29536 10.8545 0.347342L7.05017 4.08656L6.6808 3.72375C6.57438 3.61919 6.43078 3.5612 6.2816 3.56252C6.13243 3.56384 5.98988 3.62436 5.88533 3.73078C5.78077 3.8372 5.72278 3.98079 5.7241 4.12997C5.72541 4.27915 5.78594 4.42169 5.89236 4.52625L6.65595 5.27625C6.76114 5.3796 6.90271 5.4375 7.05017 5.4375C7.19763 5.4375 7.3392 5.3796 7.44439 5.27625L11.6444 1.15125C11.6971 1.09948 11.7391 1.03784 11.7679 0.969844C11.7968 0.90185 11.812 0.828836 11.8127 0.75497C11.8133 0.681103 11.7994 0.607832 11.7717 0.539339C11.7441 0.470845 11.7032 0.408472 11.6514 0.355779V0.354373Z" fill="#F8F8F8"/>
</svg>
