<svg width="24" height="24" viewBox="0 0 24 24" fill="none" xmlns="http://www.w3.org/2000/svg">
<path d="M23.2503 23.2503L17.8215 17.8215M17.8215 17.8215C18.7501 16.8929 19.4867 15.7905 19.9893 14.5772C20.4918 13.3639 20.7505 12.0635 20.7505 10.7503C20.7505 9.437 20.4919 8.13661 19.9893 6.92332C19.4867 5.71004 18.7501 4.60762 17.8215 3.67901C16.8929 2.7504 15.7905 2.01378 14.5772 1.51122C13.3639 1.00866 12.0635 0.75 10.7503 0.75C9.437 0.75 8.13661 1.00866 6.92332 1.51122C5.71004 2.01378 4.60762 2.7504 3.67901 3.67901C1.8036 5.55442 0.75 8.09802 0.75 10.7503C0.75 13.4025 1.8036 15.9461 3.67901 17.8215C5.55442 19.6969 8.09802 20.7505 10.7503 20.7505C13.4025 20.7505 15.9461 19.6969 17.8215 17.8215Z" stroke="#574F4A" stroke-linecap="round" stroke-linejoin="round"/>
</svg>
