<svg width="8" height="8" viewBox="0 0 8 8" fill="none" xmlns="http://www.w3.org/2000/svg">
<path d="M3.63975 0.956878C3.67643 0.893932 3.72898 0.841703 3.79215 0.805403C3.85531 0.769103 3.9269 0.75 3.99975 0.75C4.07261 0.75 4.14419 0.769103 4.20736 0.805403C4.27052 0.841703 4.32307 0.893932 4.35975 0.956878L5.29142 2.55621L7.10075 2.94821C7.17192 2.96368 7.2378 2.99753 7.29181 3.04639C7.34582 3.09525 7.38607 3.15742 7.40857 3.22669C7.43106 3.29596 7.43501 3.36991 7.42001 3.44118C7.40501 3.51246 7.37159 3.57855 7.32308 3.63288L6.08975 5.01321L6.27642 6.85488C6.28378 6.9274 6.27199 7.00058 6.24223 7.06712C6.21246 7.13365 6.16576 7.19122 6.10679 7.23406C6.04782 7.27691 5.97864 7.30353 5.90617 7.31128C5.83369 7.31903 5.76045 7.30763 5.69375 7.27821L3.99975 6.53155L2.30575 7.27821C2.23906 7.30763 2.16581 7.31903 2.09334 7.31128C2.02086 7.30353 1.95168 7.27691 1.89271 7.23406C1.83374 7.19122 1.78704 7.13365 1.75727 7.06712C1.72751 7.00058 1.71572 6.9274 1.72308 6.85488L1.90975 5.01321L0.676418 3.63321C0.627827 3.57889 0.594336 3.51277 0.579289 3.44145C0.564242 3.37014 0.568164 3.29612 0.590665 3.2268C0.613167 3.15747 0.653459 3.09526 0.70752 3.04638C0.76158 2.99749 0.827518 2.96364 0.898751 2.94821L2.70808 2.55621L3.63975 0.956878Z" fill="#FDC109"/>
</svg>
