<svg width="16" height="10" viewBox="0 0 16 10" fill="none" xmlns="http://www.w3.org/2000/svg">
<path d="M0.320786 1.98693L8.00079 9.93359L15.6808 1.98693C15.8894 1.77033 16.0035 1.47973 15.9978 1.17905C15.9922 0.878366 15.8674 0.592232 15.6508 0.383595C15.4342 0.174958 15.1436 0.0609083 14.8429 0.066534C14.5422 0.0721598 14.2561 0.197001 14.0475 0.413595L8.00079 6.67359L1.94745 0.413595C1.73882 0.197001 1.45268 0.0721598 1.152 0.066534C0.851316 0.0609083 0.560713 0.174958 0.34412 0.383595C0.127526 0.592232 0.00268459 0.878366 -0.00294113 1.17905C-0.00856781 1.47973 0.105482 1.77033 0.314119 1.98693H0.320786Z" fill="black"/>
</svg>
