<svg width="26" height="20" viewBox="0 0 26 20" fill="none" xmlns="http://www.w3.org/2000/svg">
<path d="M1.5 3C1.5 2.20435 1.81607 1.44129 2.37868 0.878679C2.94129 0.31607 3.70435 0 4.5 0H19.5C20.2957 0 21.0587 0.31607 21.6213 0.878679C22.1839 1.44129 22.5 2.20435 22.5 3V5.1015C22.0361 4.83366 21.5282 4.65079 21 4.5615V3C21 2.60218 20.842 2.22064 20.5607 1.93934C20.2794 1.65804 19.8978 1.5 19.5 1.5H4.5C4.10218 1.5 3.72064 1.65804 3.43934 1.93934C3.15804 2.22064 3 2.60218 3 3V10.5C3 10.8978 3.15804 11.2794 3.43934 11.5607C3.72064 11.842 4.10218 12 4.5 12H16.896L16.9095 12.015C15.8235 12.1125 14.8695 12.675 14.25 13.5H4.5C3.70435 13.5 2.94129 13.1839 2.37868 12.6213C1.81607 12.0587 1.5 11.2956 1.5 10.5V3ZM13.5 15.75C13.5 15.493 13.525 15.243 13.575 15H0.75C0.551088 15 0.360322 15.079 0.21967 15.2197C0.0790178 15.3603 0 15.5511 0 15.75C0 15.9489 0.0790178 16.1397 0.21967 16.2803C0.360322 16.421 0.551088 16.5 0.75 16.5H13.557C13.5171 16.252 13.498 16.0012 13.5 15.75ZM23.25 9C23.25 9.79565 22.9339 10.5587 22.3713 11.1213C21.8087 11.6839 21.0457 12 20.25 12C19.4544 12 18.6913 11.6839 18.1287 11.1213C17.5661 10.5587 17.25 9.79565 17.25 9C17.25 8.20435 17.5661 7.44129 18.1287 6.87868C18.6913 6.31607 19.4544 6 20.25 6C21.0457 6 21.8087 6.31607 22.3713 6.87868C22.9339 7.44129 23.25 8.20435 23.25 9ZM25.5 15.75C25.5 17.6175 24 19.5 20.25 19.5C16.5 19.5 15 17.625 15 15.75C15 15.1533 15.2371 14.581 15.659 14.159C16.081 13.7371 16.6533 13.5 17.25 13.5H23.25C23.8467 13.5 24.419 13.7371 24.841 14.159C25.2629 14.581 25.5 15.1533 25.5 15.75Z" fill="#FE6002"/>
</svg>
