<svg width="18" height="20" viewBox="0 0 18 20" fill="none" xmlns="http://www.w3.org/2000/svg">
<path d="M16.271 8.63128L3.14136 1.1391C2.86453 0.984025 2.54705 0.916912 2.23115 0.946682C1.91524 0.976453 1.61589 1.1017 1.37291 1.30575C1.12992 1.50981 0.954819 1.78301 0.870892 2.08901C0.786966 2.39501 0.798193 2.71932 0.90308 3.01878L3.26089 10L0.90308 16.9813C0.820186 17.2168 0.794939 17.4688 0.829456 17.716C0.863972 17.9633 0.957246 18.1987 1.10146 18.4025C1.24568 18.6064 1.43664 18.7727 1.65835 18.8875C1.88006 19.0023 2.12606 19.0623 2.37574 19.0625C2.64424 19.062 2.90811 18.9926 3.14214 18.861L3.14917 18.8563L16.2742 11.3508C16.5148 11.2146 16.715 11.0169 16.8543 10.7781C16.9936 10.5392 17.067 10.2676 17.067 9.99105C17.067 9.71452 16.9936 9.44294 16.8543 9.20405C16.715 8.96515 16.5148 8.76751 16.2742 8.63128H16.271ZM2.93745 16.8172L4.92339 10.9375H9.25074C9.49938 10.9375 9.73783 10.8388 9.91365 10.6629C10.0895 10.4871 10.1882 10.2487 10.1882 10C10.1882 9.75139 10.0895 9.51294 9.91365 9.33712C9.73783 9.16131 9.49938 9.06253 9.25074 9.06253H4.92339L2.93667 3.18128L14.871 9.99144L2.93745 16.8172Z" fill="white"/>
</svg>
