<svg width="18" height="18" viewBox="0 0 18 18" fill="none" xmlns="http://www.w3.org/2000/svg">
<path d="M17.0294 17.7901C17.4894 18.2501 18.1994 17.5401 17.7394 17.0901L13.9894 13.3301C15.3051 11.8748 16.0323 9.98196 16.0294 8.02006C16.0294 3.63006 12.4594 0.0600586 8.06938 0.0600586C3.67938 0.0600586 0.109375 3.63006 0.109375 8.02006C0.109375 12.4101 3.67938 15.9801 8.06938 15.9801C10.0494 15.9801 11.8794 15.2501 13.2794 14.0401L17.0294 17.7901ZM1.10838 8.02006C1.10838 4.18006 4.23837 1.06006 8.06837 1.06006C11.9084 1.06006 15.0284 4.18006 15.0284 8.02006C15.0284 11.8601 11.9084 14.9801 8.06837 14.9801C4.23837 14.9801 1.10838 11.8601 1.10838 8.02006Z" fill="black"/>
</svg>
