<svg width="18" height="18" viewBox="0 0 18 18" fill="none" xmlns="http://www.w3.org/2000/svg">
<path d="M16.9321 10.0407C16.7433 11.4806 16.166 12.842 15.2622 13.9788C14.3585 15.1157 13.1623 15.985 11.802 16.4937C10.4418 17.0024 8.96866 17.1312 7.54074 16.8663C6.11282 16.6013 4.78395 15.9527 3.69664 14.99C2.60933 14.0272 1.8046 12.7867 1.36876 11.4013C0.932916 10.016 0.882404 8.53813 1.22264 7.12626C1.56287 5.7144 2.28102 4.42178 3.30006 3.38703C4.3191 2.35229 5.60059 1.61446 7.00709 1.25268C10.9061 0.252679 14.9421 2.25968 16.4321 5.99968" stroke="#BA68C8" stroke-width="2" stroke-linecap="round" stroke-linejoin="round"/>
<path d="M17 1V6H12" stroke="#BA68C8" stroke-width="2" stroke-linecap="round" stroke-linejoin="round"/>
</svg>
