<svg width="12" height="11" viewBox="0 0 12 11" fill="none" xmlns="http://www.w3.org/2000/svg">
<path d="M5.10148 0.906361C5.40199 -0.0125321 6.70191 -0.0125339 7.00241 0.906359L7.63434 2.83869C7.76878 3.24979 8.15229 3.52786 8.58481 3.52786H10.6159C11.5862 3.52786 11.988 4.77078 11.2012 5.33868L9.56918 6.5168C9.21642 6.77144 9.06877 7.22494 9.20401 7.63845L9.83002 9.5527C10.1309 10.4729 9.07924 11.241 8.29426 10.6744L6.63724 9.47823C6.28781 9.22599 5.81608 9.22599 5.46665 9.47823L3.80963 10.6744C3.02465 11.241 1.97295 10.4729 2.27387 9.5527L2.89989 7.63845C3.03512 7.22494 2.88748 6.77144 2.53472 6.5168L0.902655 5.33868C0.115924 4.77078 0.51766 3.52786 1.48795 3.52786H3.51909C3.95161 3.52786 4.33511 3.24979 4.46955 2.83869L5.10148 0.906361Z" fill="#FE6002"/>
</svg>
