<svg width="8" height="12" viewBox="0 0 8 12" fill="none" xmlns="http://www.w3.org/2000/svg">
<path fill-rule="evenodd" clip-rule="evenodd" d="M7.10002 6.60002C7.23336 6.40002 7.30002 6.20002 7.30002 6.00002C7.30002 5.80002 7.23336 5.60002 7.10002 5.40002L2.40002 0.700024C2.33336 0.633358 2.23336 0.566691 2.10002 0.500024C2.03336 0.433358 1.93336 0.400024 1.80002 0.400024C1.66669 0.400024 1.56669 0.433358 1.50002 0.500024C1.36669 0.566691 1.26669 0.633358 1.20002 0.700024C1.13336 0.766691 1.06669 0.866691 1.00002 1.00002C0.933358 1.06669 0.900024 1.16669 0.900024 1.30002C0.900024 1.36669 0.933358 1.46669 1.00002 1.60002C1.06669 1.73336 1.13336 1.83336 1.20002 1.90002L5.30002 6.00002L1.20002 10.1C1.06669 10.3 1.00002 10.5 1.00002 10.7C1.00002 10.9 1.06669 11.1 1.20002 11.3C1.33336 11.4334 1.53336 11.5 1.80002 11.5C2.00002 11.5 2.20002 11.4334 2.40002 11.3L7.10002 6.60002Z" fill="#FE6002"/>
</svg>
