<svg width="15" height="15" viewBox="0 0 15 15" fill="none" xmlns="http://www.w3.org/2000/svg">
<path d="M12.233 0.501405C12.3802 0.345765 12.5572 0.221216 12.7533 0.135122C12.9495 0.0490271 13.161 0.00313397 13.3752 0.000154977C13.5894 -0.00282402 13.802 0.0371715 14.0005 0.117778C14.199 0.198384 14.3793 0.317964 14.5308 0.469451C14.6823 0.620938 14.8019 0.801257 14.8825 0.999749C14.9631 1.19824 15.0031 1.41088 15.0001 1.62509C14.9971 1.83931 14.9512 2.05075 14.8651 2.24692C14.779 2.4431 14.6545 2.62002 14.4989 2.76724L9.80264 7.46346C9.79642 7.46966 9.79149 7.47703 9.78812 7.48515C9.78475 7.49326 9.78302 7.50196 9.78302 7.51074C9.78302 7.51953 9.78475 7.52822 9.78812 7.53634C9.79149 7.54445 9.79642 7.55182 9.80264 7.55803L14.4989 12.2542C14.6497 12.4026 14.7697 12.5794 14.8519 12.7744C14.934 12.9693 14.9768 13.1786 14.9777 13.3902C14.9786 13.6018 14.9376 13.8115 14.857 14.0071C14.7765 14.2028 14.658 14.3805 14.5084 14.5301C14.3588 14.6798 14.1811 14.7983 13.9854 14.8789C13.7898 14.9595 13.5801 15.0006 13.3686 14.9997C13.157 14.9989 12.9477 14.9562 12.7527 14.874C12.5577 14.7919 12.3809 14.672 12.2325 14.5211L7.53627 9.82493C7.53007 9.81871 7.5227 9.81377 7.51459 9.81041C7.50647 9.80704 7.49777 9.80531 7.48899 9.80531C7.48021 9.80531 7.47151 9.80704 7.46339 9.81041C7.45528 9.81377 7.44791 9.81871 7.44171 9.82493L2.74548 14.5211C2.59711 14.672 2.42035 14.792 2.22538 14.8741C2.03041 14.9563 1.8211 14.9991 1.60952 15C1.39794 15.0009 1.18828 14.9599 0.992629 14.8793C0.796979 14.7988 0.619213 14.6803 0.469585 14.5307C0.319956 14.3811 0.201426 14.2034 0.120833 14.0077C0.0402389 13.8121 -0.00082398 13.6024 1.25278e-05 13.3909C0.000849035 13.1793 0.0435684 12.97 0.125707 12.775C0.207845 12.58 0.327776 12.4032 0.478583 12.2548L5.1748 7.55856C5.18102 7.55236 5.18596 7.54499 5.18932 7.53687C5.19269 7.52876 5.19442 7.52006 5.19442 7.51128C5.19442 7.50249 5.19269 7.49379 5.18932 7.48568C5.18596 7.47757 5.18102 7.4702 5.1748 7.46399L0.478583 2.76777C0.182006 2.4664 0.0165311 2.06004 0.0182028 1.63721C0.0198745 1.21439 0.188557 0.809349 0.487508 0.510328C0.786458 0.211307 1.19146 0.0425292 1.61428 0.0407578C2.03711 0.0389865 2.4435 0.204365 2.74495 0.500871L7.44117 5.19709C7.44738 5.20331 7.45475 5.20825 7.46286 5.21161C7.47097 5.21498 7.47967 5.21671 7.48845 5.21671C7.49724 5.21671 7.50594 5.21498 7.51405 5.21161C7.52216 5.20825 7.52953 5.20331 7.53574 5.19709L12.233 0.501405Z" fill="#574F4A"/>
</svg>
