<svg width="12" height="8" viewBox="0 0 12 8" fill="none" xmlns="http://www.w3.org/2000/svg">
<path d="M8.99968 2.20287e-08C9.61188 -8.4042e-05 10.1996 0.240434 10.6361 0.66969C11.0726 1.09895 11.3229 1.68255 11.333 2.29467C11.393 2.87133 11.3844 3.722 10.9944 4.704C10.5957 5.708 9.81835 6.80267 8.39968 7.86667C8.32965 7.9192 8.24995 7.95742 8.16514 7.97914C8.08033 8.00087 7.99207 8.00568 7.9054 7.9933C7.73037 7.9683 7.57244 7.87478 7.46635 7.73333C7.36026 7.59189 7.31471 7.41409 7.33972 7.23905C7.36472 7.06402 7.45824 6.90609 7.59968 6.8C8.64235 6.018 9.23968 5.258 9.58168 4.59333C9.26104 4.67568 8.92655 4.68885 8.60043 4.63197C8.2743 4.5751 7.96402 4.44948 7.69018 4.26346C7.41634 4.07744 7.18521 3.83528 7.01216 3.55307C6.83911 3.27086 6.72809 2.95505 6.68648 2.62663C6.64486 2.29821 6.67361 1.9647 6.77081 1.64824C6.86801 1.33179 7.03143 1.03964 7.25022 0.791203C7.46902 0.542766 7.73817 0.343729 8.0398 0.207314C8.34143 0.0708994 8.66864 0.000229745 8.99968 2.20287e-08ZM2.99968 2.20287e-08C3.61188 -8.4042e-05 4.19959 0.240434 4.63608 0.66969C5.07257 1.09895 5.32287 1.68255 5.33302 2.29467C5.39302 2.87133 5.38435 3.722 4.99435 4.704C4.59635 5.708 3.81835 6.80267 2.39968 7.86667C2.32964 7.9192 2.24995 7.95742 2.16514 7.97914C2.08033 8.00087 1.99207 8.00568 1.9054 7.9933C1.73037 7.9683 1.57244 7.87478 1.46635 7.73333C1.36026 7.59189 1.31471 7.41409 1.33972 7.23905C1.36472 7.06402 1.45823 6.90609 1.59968 6.8C2.64235 6.018 3.23968 5.258 3.58168 4.59333C3.26104 4.67568 2.92655 4.68885 2.60043 4.63197C2.2743 4.5751 1.96402 4.44948 1.69018 4.26346C1.41634 4.07744 1.18521 3.83528 1.01216 3.55307C0.839109 3.27086 0.728089 2.95505 0.686476 2.62663C0.644864 2.29821 0.673611 1.9647 0.770809 1.64824C0.868007 1.33179 1.03143 1.03964 1.25022 0.791203C1.46901 0.542766 1.73817 0.343729 2.0398 0.207314C2.34143 0.0708994 2.66864 0.000229745 2.99968 2.20287e-08Z" fill="white"/>
</svg>
