<svg width="18" height="4" viewBox="0 0 18 4" fill="none" xmlns="http://www.w3.org/2000/svg">
<path fill-rule="evenodd" clip-rule="evenodd" d="M3.75 2C3.75 2.22981 3.70474 2.45738 3.61679 2.6697C3.52884 2.88202 3.39994 3.07493 3.23744 3.23744C3.07493 3.39994 2.88202 3.52884 2.6697 3.61679C2.45738 3.70473 2.22981 3.75 2 3.75C1.77019 3.75 1.54262 3.70473 1.3303 3.61679C1.11798 3.52884 0.925066 3.39994 0.762563 3.23744C0.600061 3.07493 0.471157 2.88202 0.383211 2.6697C0.295265 2.45738 0.25 2.22981 0.25 2C0.25 1.53587 0.434375 1.09075 0.762563 0.762563C1.09075 0.434374 1.53587 0.25 2 0.25C2.46413 0.25 2.90925 0.434374 3.23744 0.762563C3.56563 1.09075 3.75 1.53587 3.75 2ZM9 0.25C9.46413 0.25 9.90925 0.434374 10.2374 0.762563C10.5656 1.09075 10.75 1.53587 10.75 2C10.75 2.46413 10.5656 2.90925 10.2374 3.23744C9.90925 3.56563 9.46413 3.75 9 3.75C8.53587 3.75 8.09075 3.56563 7.76256 3.23744C7.43437 2.90925 7.25 2.46413 7.25 2C7.25 1.53587 7.43437 1.09075 7.76256 0.762563C8.09075 0.434374 8.53587 0.25 9 0.25ZM16 0.25C16.4641 0.25 16.9092 0.434374 17.2374 0.762563C17.5656 1.09075 17.75 1.53587 17.75 2C17.75 2.46413 17.5656 2.90925 17.2374 3.23744C16.9092 3.56563 16.4641 3.75 16 3.75C15.5359 3.75 15.0908 3.56563 14.7626 3.23744C14.4344 2.90925 14.25 2.46413 14.25 2C14.25 1.53587 14.4344 1.09075 14.7626 0.762563C15.0908 0.434374 15.5359 0.25 16 0.25Z" fill="#FE6002"/>
</svg>
