<svg width="12" height="6" viewBox="0 0 12 6" fill="none" xmlns="http://www.w3.org/2000/svg">
<path d="M7.14439 1.15126L2.94439 5.27626C2.8392 5.37961 2.69763 5.43751 2.55017 5.43751C2.40271 5.43751 2.26114 5.37961 2.15595 5.27626L0.355952 3.5086C0.303228 3.45683 0.261217 3.39519 0.232318 3.32718C0.20342 3.25918 0.188198 3.18614 0.187523 3.11226C0.186161 2.96303 0.244133 2.81938 0.348686 2.7129C0.400456 2.66018 0.462103 2.61817 0.530108 2.58927C0.598114 2.56037 0.671145 2.54515 0.745033 2.54447C0.894256 2.54311 1.03791 2.60108 1.14439 2.70563L2.55064 4.08657L6.35642 0.34876C6.46284 0.244206 6.60643 0.186209 6.75561 0.187528C6.90479 0.188847 7.04734 0.249372 7.15189 0.35579C7.25644 0.462209 7.31444 0.605802 7.31312 0.754981C7.3118 0.90416 7.25128 1.04671 7.14486 1.15126H7.14439ZM11.6514 0.354384C11.5996 0.301481 11.5379 0.259322 11.4698 0.230327C11.4017 0.201331 11.3285 0.186069 11.2544 0.185416C11.1804 0.184763 11.107 0.198731 11.0384 0.22652C10.9697 0.254309 10.9073 0.295372 10.8545 0.347353L7.05017 4.08657L6.6808 3.72376C6.57438 3.61921 6.43078 3.56121 6.2816 3.56253C6.13243 3.56385 5.98988 3.62437 5.88533 3.73079C5.78077 3.83721 5.72278 3.9808 5.7241 4.12998C5.72541 4.27916 5.78594 4.42171 5.89236 4.52626L6.65595 5.27626C6.76114 5.37961 6.90271 5.43751 7.05017 5.43751C7.19763 5.43751 7.3392 5.37961 7.44439 5.27626L11.6444 1.15126C11.6971 1.09949 11.7391 1.03785 11.7679 0.969855C11.7968 0.901862 11.812 0.828847 11.8127 0.754981C11.8133 0.681115 11.7994 0.607843 11.7717 0.53935C11.7441 0.470857 11.7032 0.408483 11.6514 0.35579V0.354384Z" fill="#757575"/>
</svg>
