<svg width="25" height="25" viewBox="0 0 25 25" fill="none" xmlns="http://www.w3.org/2000/svg">
<path d="M9.74166 1.87197C10.5836 2.27963 11.588 2.14158 12.2886 1.52189C12.4093 1.41516 12.5907 1.41516 12.7114 1.52189C13.412 2.14158 14.4164 2.27963 15.2583 1.87197C15.4034 1.80175 15.578 1.85067 15.6654 1.98601C16.1729 2.77177 17.1028 3.17568 18.0235 3.01028C18.182 2.98179 18.337 3.076 18.3846 3.22991C18.6613 4.12345 19.4478 4.76327 20.3789 4.85239C20.5393 4.86774 20.6631 5.00027 20.6675 5.16132C20.6928 6.09639 21.2775 6.92466 22.1501 7.2617C22.3004 7.31975 22.3838 7.48075 22.3445 7.63702C22.1167 8.54425 22.4562 9.49955 23.2055 10.0595C23.3345 10.156 23.3714 10.3335 23.2915 10.4734C22.8273 11.2855 22.8965 12.297 23.4669 13.0383C23.5652 13.166 23.5528 13.3469 23.4381 13.46C22.772 14.1168 22.5658 15.1094 22.915 15.9772C22.9752 16.1267 22.9145 16.2975 22.7735 16.3755C21.9549 16.8282 21.4885 17.7284 21.5907 18.6582C21.6083 18.8183 21.5037 18.9665 21.3469 19.0035C20.4366 19.2186 19.7446 19.9596 19.5921 20.8825C19.5658 21.0414 19.4252 21.1559 19.2642 21.1492C18.3296 21.1107 17.4633 21.6375 17.0675 22.485C16.9994 22.631 16.8331 22.7033 16.6798 22.6534C15.7903 22.3642 14.814 22.6377 14.2042 23.3471C14.0992 23.4693 13.9196 23.4939 13.7855 23.4046C13.0069 22.8861 11.9931 22.8861 11.2145 23.4046C11.0804 23.4939 10.9008 23.4693 10.7958 23.3471C10.186 22.6377 9.20974 22.3642 8.32017 22.6534C8.16695 22.7033 8.00063 22.631 7.93246 22.485C7.53666 21.6375 6.67041 21.1107 5.7358 21.1492C5.57482 21.1559 5.43416 21.0414 5.4079 20.8825C5.25544 19.9596 4.56345 19.2186 3.6531 19.0035C3.4963 18.9665 3.39173 18.8183 3.40933 18.6582C3.51153 17.7284 3.0451 16.8282 2.22654 16.3755C2.08555 16.2975 2.02482 16.1267 2.08498 15.9772C2.43424 15.1094 2.22797 14.1168 1.56191 13.46C1.44719 13.3469 1.43481 13.166 1.53306 13.0383C2.10349 12.297 2.17268 11.2855 1.70851 10.4734C1.62856 10.3335 1.66545 10.156 1.79451 10.0595C2.5438 9.49955 2.88331 8.54425 2.65547 7.63702C2.61622 7.48075 2.69964 7.31975 2.84994 7.2617C3.72252 6.92466 4.30718 6.09639 4.33255 5.16132C4.33692 5.00027 4.46068 4.86774 4.62106 4.85239C5.55222 4.76327 6.33866 4.12345 6.61537 3.22991C6.66303 3.076 6.81796 2.98179 6.97654 3.01028C7.8972 3.17568 8.82711 2.77177 9.33463 1.98601C9.42204 1.85067 9.59665 1.80175 9.74166 1.87197Z" stroke="url(#paint0_linear_61_690)" stroke-width="2"/>
<path d="M12.4993 20.6106C16.9287 20.6106 20.6103 16.9368 20.6103 12.4996C20.6103 8.07026 16.9205 4.38867 12.4912 4.38867C8.05431 4.38867 4.38867 8.07026 4.38867 12.4996C4.38867 16.9368 8.06212 20.6106 12.4993 20.6106ZM9.32664 16.929C9.13596 16.7858 9.10406 16.5551 9.21535 16.2291L10.1857 13.3268L7.70451 11.5534C7.41815 11.3545 7.31501 11.132 7.3788 10.9094C7.45005 10.6946 7.67262 10.5834 8.01462 10.5834L11.0682 10.6071L11.9985 7.68856C12.0942 7.36285 12.2611 7.18778 12.4996 7.18778C12.7382 7.18778 12.8973 7.36251 13.0008 7.68856L13.9311 10.6071L16.9765 10.5834C17.3267 10.5834 17.5329 10.6946 17.6127 10.9091C17.6924 11.132 17.573 11.3545 17.2948 11.5534L14.8058 13.3268L15.7761 16.2291C15.8871 16.5551 15.8555 16.7855 15.6723 16.929C15.4738 17.08 15.2431 17.024 14.9649 16.8177L12.4993 15.0127L10.034 16.8177C9.74769 17.0244 9.51765 17.08 9.32664 16.929Z" fill="url(#paint1_linear_61_690)"/>
<defs>
<linearGradient id="paint0_linear_61_690" x1="0" y1="12.5" x2="25" y2="12.5" gradientUnits="userSpaceOnUse">
<stop stop-color="#FE6002"/>
<stop offset="1" stop-color="#CA0CB6"/>
</linearGradient>
<linearGradient id="paint1_linear_61_690" x1="4.38867" y1="12.4996" x2="20.6103" y2="12.4996" gradientUnits="userSpaceOnUse">
<stop stop-color="#FE6002"/>
<stop offset="1" stop-color="#CA0CB6"/>
</linearGradient>
</defs>
</svg>
