<svg width="30" height="30" viewBox="0 0 30 30" fill="none" xmlns="http://www.w3.org/2000/svg">
<g clip-path="url(#clip0_12_900)">
<g clip-path="url(#clip1_12_900)">
<path d="M14.9996 -0.03125C6.71117 -0.03125 -0.0332031 6.71125 -0.0332031 15.0006C-0.0332031 23.29 6.71117 30.0325 14.9996 30.0325C23.288 30.0325 30.0324 23.29 30.0324 15.0006C30.0324 6.71125 23.288 -0.03125 14.9996 -0.03125ZM14.9996 29.0312C7.26336 29.0312 0.969922 22.7369 0.969922 15.0006C0.969922 7.26438 7.26336 0.97 14.9996 0.97C22.7359 0.97 29.0293 7.26438 29.0293 15.0006C29.0293 22.7369 22.7359 29.0312 14.9996 29.0312Z" fill="#7C7C7C"/>
<path d="M23.2429 10.3562C23.3469 10.1638 23.4326 9.96194 23.4989 9.75344C23.5295 9.65672 23.5302 9.55298 23.5006 9.4559C23.4711 9.35883 23.4129 9.27299 23.3335 9.20972C23.2542 9.14645 23.1576 9.10872 23.0564 9.10152C22.9552 9.09431 22.8542 9.11797 22.7667 9.16938C22.2863 9.45476 21.7663 9.66738 21.2236 9.80031C20.5647 9.20573 19.7091 8.8761 18.8217 8.875C18.3395 8.87537 17.8624 8.97309 17.419 9.16231C16.9755 9.35152 16.5748 9.62833 16.2409 9.97615C15.907 10.324 15.6468 10.7356 15.4759 11.1864C15.3049 11.6372 15.2267 12.1179 15.2461 12.5997C13.1376 12.3343 11.2123 11.2674 9.8695 9.62031C9.81805 9.55791 9.7523 9.50886 9.67783 9.47731C9.60337 9.44576 9.52238 9.43264 9.44177 9.43909C9.36115 9.44553 9.28328 9.47133 9.21477 9.51431C9.14626 9.55728 9.08913 9.61616 9.04825 9.68594C8.74077 10.2137 8.57364 10.8114 8.56281 11.4221C8.55198 12.0328 8.6978 12.6361 8.98637 13.1744C8.9156 13.1863 8.84761 13.2111 8.78575 13.2475C8.70995 13.2958 8.64754 13.3625 8.60428 13.4413C8.56103 13.5201 8.53832 13.6085 8.53825 13.6984C8.53825 14.7625 9.01168 15.7394 9.77481 16.4031L9.742 16.4359C9.68438 16.5011 9.64475 16.5802 9.62699 16.6653C9.60924 16.7505 9.61398 16.8388 9.64075 16.9216C9.79988 17.418 10.0656 17.8736 10.4193 18.2566C10.7729 18.6396 11.206 18.9407 11.6882 19.1388C10.6979 19.6219 9.58952 19.8103 8.49512 19.6816C8.38263 19.6701 8.26951 19.6963 8.17348 19.756C8.07746 19.8157 8.00396 19.9056 7.9645 20.0116C7.9266 20.1183 7.92589 20.2347 7.96248 20.342C7.99907 20.4492 8.07081 20.5409 8.16606 20.6022C9.65388 21.5571 11.3847 22.0644 13.1526 22.0638C18.9464 22.0638 22.4095 17.3575 22.4095 12.8078L22.4086 12.6541C22.9701 12.2157 23.4578 11.6903 23.8532 11.0978C23.9131 11.0082 23.9426 10.9018 23.9372 10.7942C23.9319 10.6865 23.892 10.5835 23.8236 10.5003C23.7551 10.4171 23.6616 10.3582 23.5571 10.3322C23.4525 10.3063 23.3424 10.3147 23.2429 10.3562ZM21.607 12.0016C21.539 12.0505 21.4843 12.1157 21.4479 12.1912C21.4116 12.2667 21.3947 12.3501 21.3989 12.4338C21.4045 12.5575 21.4073 12.6831 21.4073 12.8069C21.4073 16.8644 18.3201 21.0616 13.1536 21.0616C12.2321 21.062 11.3171 20.9073 10.447 20.6041C11.4891 20.4043 12.4681 19.9575 13.3017 19.3009C13.3828 19.237 13.4422 19.1495 13.4718 19.0505C13.5013 18.9514 13.4995 18.8457 13.4667 18.7477C13.4339 18.6497 13.3716 18.5643 13.2884 18.5031C13.2051 18.4418 13.105 18.4078 13.0017 18.4056C12.5975 18.3979 12.2007 18.2953 11.8434 18.1061C11.4861 17.9168 11.1783 17.6463 10.9448 17.3162C11.182 17.3003 11.4145 17.2609 11.6404 17.2C11.7498 17.1707 11.846 17.1053 11.9133 17.0143C11.9807 16.9233 12.0152 16.8122 12.0113 16.6991C12.0074 16.5859 11.9653 16.4775 11.8918 16.3914C11.8183 16.3053 11.7178 16.2466 11.6067 16.225C11.1501 16.1321 10.7274 15.9169 10.3838 15.6023C10.0401 15.2877 9.78849 14.8856 9.65575 14.4391C9.90512 14.5019 10.1611 14.5384 10.417 14.5469C10.6373 14.5459 10.8417 14.4109 10.9101 14.1991C10.9786 13.9872 10.8979 13.7538 10.7114 13.63C10.2703 13.3361 9.93061 12.9132 9.73882 12.419C9.54703 11.9249 9.51246 11.3836 9.63981 10.8691C11.2683 12.54 13.4672 13.535 15.7973 13.6553C15.9623 13.6562 16.1067 13.5972 16.207 13.4763C16.3073 13.3553 16.3457 13.195 16.3101 13.0413C16.1819 12.4891 16.2393 11.91 16.4733 11.3937C16.7073 10.8774 17.105 10.4526 17.6048 10.1851C18.1046 9.91759 18.6786 9.82227 19.2381 9.91388C19.7975 10.0055 20.3111 10.2789 20.6995 10.6919C20.7577 10.754 20.8308 10.8002 20.9118 10.8263C20.9928 10.8524 21.0791 10.8574 21.1626 10.8409C21.3173 10.81 21.4701 10.7744 21.6211 10.7331C21.553 10.7841 21.4823 10.8313 21.4092 10.8747C21.312 10.9342 21.2379 11.0251 21.1993 11.1324C21.1607 11.2396 21.1597 11.3569 21.1966 11.4647C21.2335 11.5726 21.3061 11.6647 21.4023 11.7258C21.4985 11.7869 21.6127 11.8134 21.7261 11.8009L21.8967 11.7794C21.8027 11.8568 21.7061 11.9309 21.607 12.0016Z" fill="#7C7C7C"/>
<path d="M13 19.0005C13.4 19.8005 11.0005 20.3338 10.0005 20.5005C14.0001 22.5005 18.5002 19.6672 20.0005 18.0005V17.5005C21.6005 16.7005 21.6671 13.8338 21.5005 12.5005L22.5005 12.0005L22.0005 11.0005L21.5005 10.5005L18.5005 9.50049L17.5005 10.0005L16.5005 11.0005L16.0005 12.0005V13.5005C13.6005 13.9005 10.6668 11.6672 9.5 10.5005C8.7 11.3005 9.5 12.8338 10 13.5005L9.5 14.0005V15.0005C10.1667 15.5005 10.9005 16.6005 10.5005 17.0005C10.1005 17.4005 12.1667 18.5005 13 19.0005Z" fill="#7C7C7C"/>
</g>
</g>
<defs>
<clipPath id="clip0_12_900">
<rect width="30" height="30" fill="white"/>
</clipPath>
<clipPath id="clip1_12_900">
<rect width="30" height="30" fill="white"/>
</clipPath>
</defs>
</svg>
