<svg version="1.2" xmlns="http://www.w3.org/2000/svg" viewBox="0 0 514 513" width="514" height="513">
	<title>close-svg</title>
	<style>
		.s0 { fill: #000000 } 
		.s1 { fill: #fe6002 } 
	</style>
	<g>
		<path fill-rule="evenodd" class="s0" d="m466.8 365.3c0 81-66.1 146.7-146.9 146.7-53.3 0-100-28.6-125.8-71.3h-135.9c-31.8 0-57.2-25.5-57.2-57.3v-325.7c0-31.8 25.4-57.7 57.2-57.7h172.2c2.9 0 5.8 1.2 7.8 3.3l108.7 114.1c1.8 2 3 4.6 3 7.3v96.9c66.2 13.8 117 72.9 116.9 143.7zm-408.6 54.2h125.4c-6.7-16-10.5-35-10.5-54.2 0-11.9 1.4-23.7 4.1-34.4h-90c-5.8 0-10.6-4.8-10.6-10.7 0-5.8 4.8-10.6 10.6-10.6h96.9c4.9-11.8 11.2-22.4 18.8-33.1h-115.7c-5.8 0-10.6-4.8-10.6-10.7 0-5.9 4.8-10.7 10.6-10.7h135.5c25.9-22.4 60.1-36.7 97.4-36.7 2.7 0 5.3 0.4 8.5 0.5v-83.4h-61.9c-25.9 0-46.9-21.1-46.9-47v-67.2h-161.6c-20 0-35.9 16.4-35.9 36.4v325.7c0 20 15.9 36 35.9 36zm182.9-331c0 14 11.5 25.7 25.6 25.7h47.3l-72.9-76.8zm204.2 277c0-69.2-56.1-125.4-125.3-125.4-69.3 0-125.4 56.2-125.4 125.4 0 69.1 56.2 125.3 125.4 125.3 69.1 0 125.3-56.2 125.3-125.3z"/>
		<path class="s1" d="m87.2 223h108.1c5.9 0 10.7-4.8 10.7-10.6 0-5.9-4.8-10.7-10.7-10.7h-108.1c-5.8 0-10.6 4.8-10.6 10.7 0 5.8 4.8 10.6 10.6 10.6zm240.3 63.6c-2-2.1-4.8-3.4-7.8-3.4-2.9 0-5.7 1.3-7.7 3.4l-62.6 67.1c-4 4.3-3.7 11.1 0.6 15.1 4.2 4 11.2 3.7 15.2-0.5l44.2-47.3v116.5c0 5.9 4.8 10.7 10.7 10.7 5.8 0 10.6-4.8 10.6-10.7v-116.5l43.9 47.3c2.1 2.2 4.9 3.4 7.8 3.4 2.5 0 5.1-1 7.2-2.9 4.3-4.1 4.6-10.8 0.6-15.1z"/>
	</g>
</svg>