<svg width="101" height="85" viewBox="0 0 101 85" fill="none" xmlns="http://www.w3.org/2000/svg">
<path d="M62.2665 13.3125H87.9006C89.6897 13.3123 91.4592 13.685 93.0963 14.4068C94.7333 15.1286 96.2019 16.1837 97.4085 17.5047C98.6151 18.8258 99.533 20.3838 100.104 22.0794C100.675 23.775 100.886 25.5709 100.724 27.3527L96.6234 72.4152C96.3327 75.6141 94.8568 78.5888 92.4854 80.7553C90.114 82.9219 87.0184 84.1237 83.8063 84.125H17.1846C13.9726 84.1237 10.877 82.9219 8.50558 80.7553C6.13419 78.5888 4.65827 75.6141 4.36758 72.4152L0.266889 27.3527C-0.00195982 24.3712 0.776549 21.3892 2.46851 18.9196L2.21745 13.3125C2.21745 9.89784 3.57392 6.62303 5.98845 4.2085C8.40298 1.79397 11.6778 0.4375 15.0925 0.4375H38.731C42.1453 0.438229 45.4196 1.79518 47.8336 4.20987L53.1638 9.54013C55.5778 11.9548 58.8521 13.3118 62.2665 13.3125ZM8.69358 14.085C10.0755 13.5743 11.5432 13.3168 13.0968 13.3125H47.8336L43.2823 8.76119C42.0753 7.55384 40.4381 6.87536 38.731 6.875H15.0925C13.4061 6.8747 11.787 7.53611 10.5832 8.71705C9.37935 9.89799 8.68699 11.5041 8.65495 13.1902L8.69358 14.085Z" fill="#FE6002"/>
</svg>
