<svg width="24" height="24" viewBox="0 0 24 24" fill="none" xmlns="http://www.w3.org/2000/svg">
<path d="M8.5 4C8.10603 4 7.71593 4.0776 7.35195 4.22836C6.98797 4.37913 6.65726 4.6001 6.37868 4.87868C6.1001 5.15726 5.87913 5.48797 5.72836 5.85195C5.5776 6.21593 5.5 6.60603 5.5 7C5.5 7.39397 5.5776 7.78407 5.72836 8.14805C5.87913 8.51203 6.1001 8.84274 6.37868 9.12132C6.65726 9.3999 6.98797 9.62087 7.35195 9.77164C7.71593 9.9224 8.10603 10 8.5 10C9.29565 10 10.0587 9.68393 10.6213 9.12132C11.1839 8.55871 11.5 7.79565 11.5 7C11.5 6.20435 11.1839 5.44129 10.6213 4.87868C10.0587 4.31607 9.29565 4 8.5 4ZM3.5 7C3.5 5.67392 4.02678 4.40215 4.96447 3.46447C5.90215 2.52678 7.17392 2 8.5 2C9.82608 2 11.0979 2.52678 12.0355 3.46447C12.9732 4.40215 13.5 5.67392 13.5 7C13.5 8.32608 12.9732 9.59785 12.0355 10.5355C11.0979 11.4732 9.82608 12 8.5 12C7.17392 12 5.90215 11.4732 4.96447 10.5355C4.02678 9.59785 3.5 8.32608 3.5 7ZM23.596 8.44L17.939 14.096L14.404 10.561L15.818 9.146L17.939 11.268L22.182 7.025L23.596 8.44ZM0 19C0 17.6739 0.526784 16.4021 1.46447 15.4645C2.40215 14.5268 3.67392 14 5 14H12C13.3261 14 14.5979 14.5268 15.5355 15.4645C16.4732 16.4021 17 17.6739 17 19V21H15V19C15 18.2044 14.6839 17.4413 14.1213 16.8787C13.5587 16.3161 12.7956 16 12 16H5C4.20435 16 3.44129 16.3161 2.87868 16.8787C2.31607 17.4413 2 18.2044 2 19V21H0V19Z" fill="black"/>
</svg>
