<svg width="30" height="30" viewBox="0 0 30 30" fill="none" xmlns="http://www.w3.org/2000/svg">
<path d="M13.4375 3.0624C14.3 2.3249 15.7125 2.3249 16.5875 3.0624L18.5625 4.7624C18.9375 5.0874 19.6375 5.3499 20.1375 5.3499H22.2625C23.5875 5.3499 24.675 6.4374 24.675 7.7624V9.8874C24.675 10.3749 24.9375 11.0874 25.2625 11.4624L26.9625 13.4374C27.7 14.2999 27.7 15.7124 26.9625 16.5874L25.2625 18.5624C24.9375 18.9374 24.675 19.6374 24.675 20.1374V22.2624C24.675 23.5874 23.5875 24.6749 22.2625 24.6749H20.1375C19.65 24.6749 18.9375 24.9374 18.5625 25.2624L16.5875 26.9624C15.725 27.6999 14.3125 27.6999 13.4375 26.9624L11.4625 25.2624C11.0875 24.9374 10.3875 24.6749 9.88747 24.6749H7.72497C6.39997 24.6749 5.31248 23.5874 5.31248 22.2624V20.1249C5.31248 19.6374 5.04998 18.9374 4.73748 18.5624L3.04998 16.5749C2.32498 15.7124 2.32498 14.3124 3.04998 13.4499L4.73748 11.4624C5.04998 11.0874 5.31248 10.3874 5.31248 9.8999V7.7499C5.31248 6.4249 6.39997 5.3374 7.72497 5.3374H9.88747C10.375 5.3374 11.0875 5.0749 11.4625 4.7499L13.4375 3.0624Z" fill="#FE6002"/>
<path d="M13.4875 18.9626C13.2375 18.9626 13 18.8626 12.825 18.6876L9.79995 15.6626C9.43745 15.3001 9.43745 14.7001 9.79995 14.3376C10.1625 13.9751 10.7625 13.9751 11.125 14.3376L13.4875 16.7001L18.8625 11.3251C19.225 10.9626 19.825 10.9626 20.1875 11.3251C20.55 11.6876 20.55 12.2876 20.1875 12.6501L14.15 18.6876C13.975 18.8626 13.7375 18.9626 13.4875 18.9626Z" fill="white"/>
</svg>
