<svg width="45" height="33" viewBox="0 0 45 33" fill="none" xmlns="http://www.w3.org/2000/svg">
<path d="M30.334 0.833008C31.415 0.833008 32.2923 1.71034 32.2923 2.79134V11.0163L42.5011 3.86842C42.9437 3.55901 43.5547 3.66672 43.8661 4.11126C43.9796 4.27576 44.0423 4.47159 44.0423 4.67134V28.328C44.0423 28.8685 43.6036 29.3072 43.0631 29.3072C42.8614 29.3072 42.6656 29.2445 42.5011 29.1309L32.2923 21.983V30.208C32.2923 31.289 31.415 32.1663 30.334 32.1663H2.91732C1.83632 32.1663 0.958984 31.289 0.958984 30.208V2.79134C0.958984 1.71034 1.83632 0.833008 2.91732 0.833008H30.334ZM14.6673 8.66634V14.5413H8.79232V18.458H14.6654L14.6673 24.333H18.584L18.582 18.458H24.459V14.5413H18.584V8.66634H14.6673Z" fill="#333037"/>
</svg>
