<svg width="35" height="35" viewBox="0 0 35 35" fill="none" xmlns="http://www.w3.org/2000/svg">
<path d="M32.2493 19.9534H19.9577V32.2451C19.9577 32.8971 19.6987 33.5224 19.2377 33.9834C18.7766 34.4444 18.1513 34.7034 17.4993 34.7034C16.8474 34.7034 16.2221 34.4444 15.761 33.9834C15.3 33.5224 15.041 32.8971 15.041 32.2451V19.9534H2.74935C2.09736 19.9534 1.47207 19.6944 1.01105 19.2334C0.550018 18.7724 0.291016 18.1471 0.291016 17.4951C0.291016 16.8431 0.550018 16.2178 1.01105 15.7568C1.47207 15.2958 2.09736 15.0368 2.74935 15.0368H15.041V2.74508C15.041 2.09309 15.3 1.46781 15.761 1.00678C16.2221 0.545752 16.8474 0.286751 17.4993 0.286751C18.1513 0.286751 18.7766 0.545752 19.2377 1.00678C19.6987 1.46781 19.9577 2.09309 19.9577 2.74508V15.0368H32.2493C32.9013 15.0368 33.5266 15.2958 33.9877 15.7568C34.4487 16.2178 34.7077 16.8431 34.7077 17.4951C34.7077 18.1471 34.4487 18.7724 33.9877 19.2334C33.5266 19.6944 32.9013 19.9534 32.2493 19.9534Z" fill="white"/>
</svg>
